<?xml version="1.0" standalone="no"?> <!DOCTYPE svg PUBLIC "-//W3C//DTD SVG 1.0//EN" "https://www.w3.org/TR/2001/REC-SVG-20010904/DTD/svg10.dtd" > <svg xmlns="https://www.w3.org/2000/svg" width="100%" height="100%">
<defs >
<font horiz-adv-x="421" ><font-face
    font-family=""
    units-per-em="1000"
    panose-1="0 0 0 0 0 0 0 0 0 0"
    ascent="730"
    descent="-270"
    alphabetic="0" />
<missing-glyph horiz-adv-x="195" />
<glyph unicode=" " glyph-name="space" horiz-adv-x="195" />
<glyph unicode="!" glyph-name="exclam" horiz-adv-x="211" d="M101 211H90L140 662H223L101 211ZM57 88Q77 88 91 75T105 40Q105 20 91 6T57 -8Q36 -8 23 6T9 40Q9 61 22 74T57 88Z" />
<glyph unicode="&quot;" glyph-name="quotedbl" horiz-adv-x="285" d="M283 692Q300 692 305 679T308 649Q306 638 303 625T293 590T277 538T252 462H242Q245 538 247 584T251 653Q253 671 260 681T283 692ZM158 692Q175 692 180 679T183 649Q181 638 178 625T168
590T152 538T127 462H117Q120 538 122 584T126 653Q128 671 135 681T158 692Z" />
<glyph unicode="#" glyph-name="numbersign" horiz-adv-x="389" d="M322 432L266 274H343L337 242H255L171 0H134L218 242H139L55 0H18L102 242H24L30 274H113L168 432H96L102 464H179L249 662H286L217 464H295L365 662H402L333 464H415L409 432H322ZM150 274H229L284
432H206L150 274Z" />
<glyph unicode="$" glyph-name="dollar" horiz-adv-x="422" d="M273 672Q279 672 285 672T298 671L315 738H347L329 667Q356 663 376 657T406 647L387 547H381Q372 576 357 598T320 631L258 390L266 378Q288 345 307 316T340 259T363 206T371 154Q371 117 356
87T316 35T258 2T189 -10Q180 -10 173 -10T157 -8L135 -96H103L126 -3Q94 3 71 14T30 38Q30 51 32 72T37 117T43 161T50 198H57Q62 132 82 92T136 36L210 324Q186 358 168 386T137 438T118 485T111 533Q111 566 125 592T161 636T213 663T273 672ZM300 132Q300 172
282 207T233 290L166 26Q171 25 177 25T189 25Q216 25 236 34T271 57T292 91T300 132ZM179 556Q179 525 194 495T235 424L290 640Q285 641 281 641T272 642Q230 642 205 618T179 556Z" />
<glyph unicode="%" glyph-name="percent" horiz-adv-x="644" d="M548 146Q548 191 525 215T469 240Q446 240 428 231T397 205T376 167T369 121Q369 76 392 52T448 27Q470 27 488 36T520 62T541 100T548 146ZM469 276Q493 276 514 268T552 244T579 204T589 147Q589
117 579 89T550 40T505 5T448 -9Q425 -9 403 -1T365 23T338 64T328 120Q328 149 338 177T367 227T411 262T469 276ZM113 515Q113 470 136 446T192 421Q214 421 232 430T264 456T285 494T292 540Q292 585 269 609T213 634Q190 634 172 625T141 599T120 561T113 515ZM213
670Q237 670 258 662T296 638T323 598T333 541Q333 511 323 483T294 434T249 399T192 385Q169 385 147 393T109 417T82 458T72 514Q72 543 82 571T111 621T155 656T213 670ZM575 662H622L92 0H45L575 662Z" />
<glyph unicode="&amp;" glyph-name="ampersand" horiz-adv-x="621" d="M648 404Q613 388 586 369T537 325T495 270T454 203Q446 189 439 178T425 155Q467 93 509 55T605 -12L604 -18Q560 -19 529 -13T476 3T440 25T416 47Q408 55 399 66T380 90Q336 32 295 9T201
-14Q165 -14 134 -4T79 28T42 79T28 150Q28 192 44 227T87 293T146 348T215 392Q201 425 193 454T185 508Q185 541 196 567T225 611T267 638T317 648Q362 648 393 624T424 559Q424 535 413 514T383 475T340 439T288 407Q302 375 319 340T360 264Q372 241 383 221T406
183L426 216Q456 268 477 300T517 355L459 404L460 410H650L648 404ZM294 231Q275 266 257 301T224 370Q201 351 180 330T143 284T117 228T107 161Q107 101 137 66T215 30Q255 30 289 48T361 116Q331 162 294 231ZM253 540Q253 495 279 428Q313 453 338 484T363
555Q363 587 349 603T314 619Q293 619 273 601T253 540Z" />
<glyph unicode="&apos;" glyph-name="quotesingle" horiz-adv-x="160" d="M156 692Q173 692 178 679T181 649Q179 638 176 625T166 590T150 538T125 462H115Q118 538 120 584T124 653Q126 671 133 681T156 692Z" />
<glyph unicode="(" glyph-name="parenleft" horiz-adv-x="312" d="M378 756L385 751Q341 697 299 634T222 494T168 329T147 133Q147 46 164 -37T205 -185L197 -189Q177 -155 158 -117T123 -35T98 60T88 171Q88 273 114 360T183 521T276 654T378 756Z" />
<glyph unicode=")" glyph-name="parenright" horiz-adv-x="312" d="M-58 -189L-65 -184Q-21 -130 21 -67T98 73T152 238T173 434Q173 521 156 604T115 752L123 756Q143 722 162 684T197 602T222 507T232 396Q232 294 206 207T137 46T44 -87T-58 -189Z" />
<glyph unicode="*" glyph-name="asterisk" horiz-adv-x="286" d="M193 515L116 455L110 459L161 541L77 576L78 583L172 578L157 672L165 675L213 590L289 648L294 643L241 562L327 527L326 520L233 525L246 433L239 431L193 515Z" />
<glyph unicode="+" glyph-name="plus" horiz-adv-x="428" d="M53 263H203L235 435H274L242 263H392L386 230H236L204 55H165L197 230H47L53 263Z" />
<glyph unicode="," glyph-name="comma" horiz-adv-x="182" d="M75 16Q56 13 40 23T23 57Q23 78 36 90T70 102Q93 102 107 85T121 40Q121 11 110 -16T78 -67T32 -113T-24 -150L-33 -145Q10 -103 37 -64T75 16Z" />
<glyph unicode="-" glyph-name="hyphen" horiz-adv-x="253" d="M63 269H213L202 210H50L63 269Z" />
<glyph unicode="." glyph-name="period" horiz-adv-x="182" d="M68 88Q88 88 102 75T116 40Q116 20 102 6T68 -8Q47 -8 34 6T20 40Q20 61 33 74T68 88Z" />
<glyph unicode="/" glyph-name="slash" horiz-adv-x="350" d="M422 739L-71 -238L-101 -224L392 754L422 739Z" />
<glyph unicode="0" glyph-name="zero" horiz-adv-x="441" d="M363 227Q363 263 353 291T326 340T286 370T240 381Q203 381 174 364T125 319T94 256T83 183Q83 147 93 119T120 70T160 40T208 29Q244 29 272 46T321 91T352 154T363 227ZM238 420Q272 420 303 408T358
371T396 310T411 228Q411 186 398 144T358 68T293 12T206 -10Q173 -10 142 2T87 39T49 100T35 182Q35 224 48 266T88 342T152 398T238 420Z" />
<glyph unicode="1" glyph-name="one" horiz-adv-x="229" d="M109 364L61 405L62 410H243V405L178 364L116 44L165 6L164 0H-18L-17 6L46 44L109 364Z" />
<glyph unicode="2" glyph-name="two" horiz-adv-x="334" d="M69 342Q74 352 83 365T105 391T137 411T181 420Q222 420 250 396T279 322Q279 293 266 265T227 207T165 142T82 65H302L264 0H-15L-13 6Q55 77 97 126T161 209T191 268T199 313Q199 339 185 355T145
372Q121 372 104 361T76 338L69 342Z" />
<glyph unicode="3" glyph-name="three" horiz-adv-x="285" d="M18 97Q68 142 99 175T147 235T171 281T178 320Q178 343 166 356T132 370Q112 370 98 361T76 344L70 348Q75 358 83 370T103 392T130 409T166 416Q207 416 229 393T252 328Q252 284 216 242T107 144Q161
141 193 109T225 21Q225 -61 149 -133T-62 -281L-67 -272Q43 -185 95 -116T147 13Q147 52 127 75T61 99Q50 99 39 96T22 91L18 97Z" />
<glyph unicode="4" glyph-name="four" horiz-adv-x="404" d="M351 428L277 51H362L352 0H267L228 -203L156 -231L200 0H-26L-25 6L343 428H351ZM210 51L253 276L57 51H210Z" />
<glyph unicode="5" glyph-name="five" horiz-adv-x="265" d="M272 410L231 349H132Q129 345 125 337T119 325Q131 301 144 273T167 213T185 150T192 88Q192 -7 121 -88T-93 -228L-96 -220Q-50 -191 -11 -155T57 -80T102 -2T119 74Q119 98 115 125T103 178T86 228T66
271Q72 284 81 303T101 342T122 380T140 410H272Z" />
<glyph unicode="6" glyph-name="six" horiz-adv-x="404" d="M192 -7Q165 -7 140 6T96 43T64 105T52 190Q52 280 90 361T189 510T329 628T488 707L492 698Q426 661 361 609T243 490T158 345T125 177Q125 104 145 62T192 20Q207 20 225 31T258 63T284 114T295 184Q295
236 272 262T213 289Q199 289 186 286T164 280L161 285Q165 289 173 295T193 308T222 320T259 325Q310 325 340 290T371 194Q371 152 356 115T315 51T258 9T192 -7Z" />
<glyph unicode="7" glyph-name="seven" horiz-adv-x="390" d="M85 410H402L401 405L37 -277L0 -265L323 345H50L85 410Z" />
<glyph unicode="8" glyph-name="eight" horiz-adv-x="359" d="M245 663Q295 663 327 633T360 555Q360 503 330 460T235 364Q253 331 268 305T294 254T311 207T317 156Q317 124 304 94T269 41T218 5T155 -9Q128 -9 104 -1T62 24T34 63T23 115Q23 145 32 172T61
226T107 280T169 339Q152 367 140 390T121 435T109 475T105 517Q105 551 118 578T153 624T198 653T245 663ZM249 139Q249 161 245 181T232 221T211 264T183 315Q135 265 110 220T85 117Q85 75 104 47T156 19Q174 19 191 28T221 53T241 91T249 139ZM170 535Q170
503 183 469T224 384Q259 423 282 465T306 552Q306 588 290 612T245 637Q216 637 193 611T170 535Z" />
<glyph unicode="9" glyph-name="nine" horiz-adv-x="404" d="M155 85Q103 85 73 123T42 221Q42 260 57 295T98 358T155 401T220 417Q245 417 270 405T316 367T348 305T361 220Q361 157 344 99T297 -10T227 -105T139 -185T41 -250T-61 -297L-66 -288Q-5 -249 58
-198T172 -81T255 62T288 233Q288 311 267 350T220 390Q206 390 189 378T155 345T129 294T118 228Q118 177 140 149T201 121Q215 121 228 124T249 130L252 125Q248 120 240 114T219 101T190 90T155 85Z" />
<glyph unicode=":" glyph-name="colon" horiz-adv-x="200" d="M122 419Q142 419 156 406T170 371Q170 351 156 337T122 323Q101 323 88 337T74 371Q74 392 87 405T122 419ZM320 88Q340 88 354 75T368 40Q368 20 354 6T320 -8Q299 -8 286 6T272 40Q272 61 285 74T320 88Z" />
<glyph unicode=";" glyph-name="semicolon" horiz-adv-x="200" d="M328 16Q309 13 293 23T276 57Q276 78 289 90T323 102Q346 102 360 85T374 40Q374 11 363 -16T331 -67T285 -113T229 -150L220 -145Q263 -103 290 -64T328 16ZM123 419Q143 419 157 406T171 371Q171
351 157 337T123 323Q102 323 89 337T75 371Q75 392 88 405T123 419Z" />
<glyph unicode="&lt;" glyph-name="less" horiz-adv-x="375" d="M43 229L50 262L367 391L360 355L85 244L319 134L312 102L43 229Z" />
<glyph unicode="=" glyph-name="equal" horiz-adv-x="406" d="M42 182L48 213H355L349 182H42ZM59 270L65 301H372L366 270H59Z" />
<glyph unicode="&gt;" glyph-name="greater" horiz-adv-x="375" d="M353 264L346 231L29 102L36 138L311 249L77 359L84 391L353 264Z" />
<glyph unicode="?" glyph-name="question" horiz-adv-x="294" d="M248 426Q232 411 211 393T172 357Q153 339 146 325T134 289Q129 269 126 249T120 211H111Q109 223 107 238T103 269T100 298T99 321Q99 343 107 358T138 398L206 467Q230 493 244 518T259 572Q259
606 243 623T204 641Q187 641 171 632T141 611T117 586T101 566H94L113 662Q119 664 144 668T202 672Q259 672 294 647T329 571Q329 538 313 505T248 426ZM92 88Q112 88 126 75T140 40Q140 20 126 6T92 -8Q71 -8 58 6T44 40Q44 61 57 74T92 88Z" />
<glyph unicode="@" glyph-name="at" horiz-adv-x="813" d="M506 47Q539 53 579 74T654 132T712 226T736 357Q736 406 722 446T680 514T610 558T509 574Q420 574 345 539T214 441T128 294T96 111Q96 49 114 -1T164 -86T240 -141T339 -160Q394 -160 439 -151T521
-127T584 -96T632 -66L639 -75Q621 -94 591 -115T522 -155T436 -185T336 -197Q267 -197 212 -176T117 -117T56 -24T35 96Q35 202 74 295T180 458T333 568T514 608Q578 608 630 591T719 542T776 465T796 364Q796 278 761 212T673 100T554 33T429 14L459 155Q443
131 424 106T385 62T344 30T303 17Q294 17 283 23T263 41T248 70T242 112Q242 154 258 202T308 292T393 364T512 403L588 437L506 47ZM333 71Q344 71 360 82T394 113T432 157T470 208L505 373Q466 370 432 347T372 288T331 206T316 114Q316 96 320 84T333 71Z"
/>
<glyph unicode="A" glyph-name="A" horiz-adv-x="567" d="M128 6L126 0H-36L-34 6L31 50L366 675H375L483 50L527 6L525 0H330L332 6L408 50L367 281H194L72 50L128 6ZM211 312H362L324 526L211 312Z" />
<glyph unicode="B" glyph-name="B" horiz-adv-x="493" d="M465 206Q465 157 446 119T397 55T329 14T253 0H-3L-2 6L70 50L163 612L107 656L108 662H303Q330 662 359 655T411 631T450 590T466 529Q466 498 454 472T422 424T379 388T333 364Q354 358 377 346T419
315T452 268T465 206ZM198 345L150 49Q157 42 178 36T231 29Q262 29 289 42T337 78T369 133T381 201Q381 241 370 269T339 313T297 337T250 345H198ZM246 631L203 374H294Q306 374 322 386T353 418T378 466T388 525Q388 555 379 575T356 608T324 625T288 631H246Z"
/>
<glyph unicode="C" glyph-name="C" horiz-adv-x="589" d="M338 -10Q282 -10 232 7T143 60T81 147T58 269Q58 348 87 421T168 550T290 639T442 672Q504 672 546 663T602 649L583 542H577Q570 561 558 578T529 609T489 631T435 639Q373 639 320 610T229 531T168
413T146 269Q146 216 160 171T200 93T261 42T338 23Q374 23 404 33T456 59T494 89T519 115H525L506 17Q495 12 452 1T338 -10Z" />
<glyph unicode="D" glyph-name="D" horiz-adv-x="637" d="M338 662Q394 662 445 644T536 591T598 504T622 382Q622 313 598 245T527 122T416 34T269 0H-3L-2 6L70 50L163 612L107 656L108 662H338ZM246 631L150 49Q166 43 194 37T269 31Q323 31 371 57T455 129T512
238T534 375Q534 441 515 489T466 569T395 616T313 631H246Z" />
<glyph unicode="E" glyph-name="E" horiz-adv-x="487" d="M-3 0L-2 6L70 50L163 612L107 656L108 662H494L474 545H467L422 630H246L203 369H384L437 438H444L416 269H409L379 337H197L147 33H339L422 138H429L407 0H-3Z" />
<glyph unicode="F" glyph-name="F" horiz-adv-x="472" d="M437 438H444L416 269H409L379 337H197L150 50L232 6L231 0H-3L-2 6L70 50L163 612L107 657V662H494L473 538H467L419 630H246L203 369H384L437 438Z" />
<glyph unicode="G" glyph-name="G" horiz-adv-x="638" d="M525 17Q516 15 498 11T457 2T407 -6T357 -10Q291 -10 236 9T142 65T80 151T58 265Q58 344 86 417T166 547T286 638T437 672Q493 672 540 664T612 647L593 543H587Q564 586 528 612T433 639Q370 639 318
609T227 527T168 408T146 267Q146 210 162 165T206 88T272 40T357 23Q389 23 412 30T447 43L489 293L420 338L421 344H631L630 338L569 293L525 17V17Z" />
<glyph unicode="H" glyph-name="H" horiz-adv-x="674" d="M200 354H520L563 612L507 656L508 662H715L714 656L643 612L550 50L607 6L606 0H397L398 6L470 50L515 322H195L150 50L207 6L206 0H-3L-2 6L70 50L163 612L107 656L108 662H315L314 656L243 612L200 354Z" />
<glyph unicode="I" glyph-name="I" horiz-adv-x="274" d="M-3 0L-2 6L70 50L163 612L107 656L108 662H315L314 656L243 612L150 50L207 6L206 0H-3Z" />
<glyph unicode="J" glyph-name="J" horiz-adv-x="270" d="M156 96Q143 16 92 -66T-43 -221L-51 -215Q-33 -188 -15 -156T21 -82T54 12T81 131L161 612L104 656L105 662H313L312 656L241 612L156 96Z" />
<glyph unicode="K" glyph-name="K" horiz-adv-x="573" d="M-3 0L-2 6L70 50L163 612L107 657L108 662H315L314 657L243 612L150 50L206 6L205 0H-3ZM318 0L319 6L390 50L241 335H207L476 612L420 656L421 662H607L606 656L528 617L302 388L477 50L538 6L537 0H318Z" />
<glyph unicode="L" glyph-name="L" horiz-adv-x="487" d="M147 33H337L441 160H447L420 0H-3L-2 6L70 50L163 612L107 656L108 662H315L314 656L243 612L147 33Z" />
<glyph unicode="M" glyph-name="M" horiz-adv-x="743" d="M459 0L460 6L541 55L619 528L325 58H319L184 531L106 55L169 6L168 0H-12L-11 6L70 55L157 588Q149 612 139 630T123 657V662H226L360 180L660 662H770L769 656Q754 642 743 631Q733 621 724 612T711
600L620 55L683 6L682 0H459Z" />
<glyph unicode="N" glyph-name="N" horiz-adv-x="658" d="M505 0L189 528L111 55L174 6L173 0H-13L-11 6L70 55L156 579Q141 602 127 621T102 657V662H201L513 132L591 607L527 657L528 662H713L712 657L632 607L533 0H505Z" />
<glyph unicode="O" glyph-name="O" horiz-adv-x="665" d="M400 640Q348 640 303 609T223 526T170 406T150 262Q150 205 163 161T198 85T249 38T310 22Q361 22 406 52T485 135T540 259T560 411Q560 468 547 510T511 582T460 625T400 640ZM63 262Q63 344 90 418T164
549T272 638T400 672Q454 672 499 653T577 598T628 515T647 410Q647 322 620 246T546 112T438 23T310 -10Q259 -10 215 9T136 63T83 149T63 262Z" />
<glyph unicode="P" glyph-name="P" horiz-adv-x="475" d="M494 496Q494 454 475 417T421 350T335 302T224 278L226 286Q267 298 301 318T360 366T398 425T412 493Q412 560 371 595T263 631H246L150 50L215 6L214 0H-3L-2 6L70 50L163 612L107 656L108 662H283Q322
662 360 653T427 623T475 572T494 496Z" />
<glyph unicode="Q" glyph-name="Q" horiz-adv-x="665" d="M648 414Q648 342 628 274T570 149T477 52T352 -5Q431 -50 493 -82T611 -134T719 -165T830 -175Q858 -175 884 -173T923 -168L925 -174Q917 -179 899 -187T853 -204T792 -218T718 -224Q682 -224 638 -213T535
-176T401 -108T230 -3Q204 13 175 35T121 87T80 160T63 262Q63 344 90 418T163 549T271 638T400 672Q454 672 499 653T578 599T629 517T648 414ZM150 262Q150 205 163 161T199 86T250 39T310 23Q361 23 406 53T486 136T540 260T560 415Q560 470 547 512T512 582T460
625T400 639Q348 639 302 608T223 526T170 406T150 262Z" />
<glyph unicode="R" glyph-name="R" horiz-adv-x="529" d="M-2 6L70 50L163 612L107 656L108 662H312Q342 662 372 654T425 628T463 584T478 523Q478 490 467 462T437 412T394 372T342 343L400 177Q416 130 431 98T460 45T486 11T510 -11L509 -17Q461 -13 433 -2T386
30T355 82T326 155Q307 204 293 250T269 332H196L150 50L207 6L206 0H-3L-2 6ZM245 630L201 362H305Q319 362 335 374T365 406T388 454T397 513Q397 544 389 566T367 602T336 623T300 630H245Z" />
<glyph unicode="S" glyph-name="S" horiz-adv-x="420" d="M281 672Q326 672 363 663T414 647L395 547H389Q375 591 349 616T280 642Q240 642 216 618T191 556Q191 517 213 477T274 378Q317 311 344 260T372 154Q372 117 358 87T318 35T261 2T191 -10Q131 -10 91
5T26 38Q26 51 28 72T33 117T39 161T46 198H53Q60 110 97 68T191 25Q216 25 236 34T269 57T290 91T297 131Q297 154 292 175T275 218T249 266T212 323Q189 358 172 385T144 437T126 483T120 531Q120 566 133 592T169 636T221 663T281 672Z" />
<glyph unicode="T" glyph-name="T" horiz-adv-x="572" d="M612 662L590 534H584L538 629H397L301 50L357 6L356 0H148L149 6L221 50L317 629H177L97 534H91L114 662H612Z" />
<glyph unicode="U" glyph-name="U" horiz-adv-x="637" d="M549 199Q542 158 524 121T477 54T407 8T314 -10Q254 -10 209 6T134 51T93 122T89 214L155 612L99 656L100 662H307L306 656L235 612L168 211Q161 170 171 138T202 84T256 51T327 39Q367 39 398 51T451
85T488 136T508 199L577 612L521 656L522 662H689L688 656L617 612L549 199Z" />
<glyph unicode="V" glyph-name="V" horiz-adv-x="567" d="M472 656L473 662H635L634 656L569 612L235 -13H226L130 612L86 656L87 662H285L284 656L209 612L277 140L528 612L472 656Z" />
<glyph unicode="W" glyph-name="W" horiz-adv-x="839" d="M130 612L86 656L87 662H281L280 656L208 612L279 122L435 385L393 612L340 656L341 662H530L529 656L467 612L495 450L587 612L545 656L546 662H689L688 656L626 612L504 402L553 125L802 612L747 656L748
662H907L906 656L842 612L521 -13H510L445 334L238 -13H227L130 612Z" />
<glyph unicode="X" glyph-name="X" horiz-adv-x="586" d="M-23 0L-22 6L51 50L280 334L159 612L102 656L103 662H321L320 656L248 612L341 392L514 612L458 656L459 662H626L625 656L557 612L355 357L486 50L543 6L542 0H330L331 6L403 50L295 298L96 50L152 6L151
0H-23Z" />
<glyph unicode="Y" glyph-name="Y" horiz-adv-x="548" d="M450 656L451 662H612L611 656L548 612L338 320L294 50L351 6L350 0H141L142 6L214 50L257 315L130 612L84 656L85 662H287L286 656L213 612L321 353L505 612L450 656Z" />
<glyph unicode="Z" glyph-name="Z" horiz-adv-x="558" d="M104 34H415L504 142H509L484 0H-1L0 9L467 630H194L115 534H109L130 662H579L578 654L104 34Z" />
<glyph unicode="[" glyph-name="bracketleft" horiz-adv-x="256" d="M320 715H242L76 -135H154L150 -157H16L190 737H324L320 715Z" />
<glyph unicode="\" glyph-name="backslash" horiz-adv-x="307" d="M133 751L259 -233L227 -238L101 746L133 751Z" />
<glyph unicode="]" glyph-name="bracketright" horiz-adv-x="256" d="M-36 -135H42L208 715H130L134 737H268L94 -157H-40L-36 -135Z" />
<glyph unicode="^" glyph-name="asciicircum" horiz-adv-x="358" d="M68 323L63 327L263 674H265L340 327L335 325L242 535L68 323Z" />
<glyph unicode="_" glyph-name="underscore" horiz-adv-x="293" d="M-66 -122L-59 -89H255L248 -122H-66Z" />
<glyph unicode="`" glyph-name="grave" horiz-adv-x="400" d="M329 495L205 682L266 712L338 500L329 495Z" />
<glyph unicode="a" glyph-name="a" horiz-adv-x="408" d="M364 26L363 19Q354 16 337 13T299 5T257 -2T220 -8L251 141Q233 114 212 88T168 39T122 4T76 -10Q54 -10 35 15T15 88Q15 134 33 186T89 283T180 362T305 405L386 451L305 53L364 26ZM262 195L300 375Q260
372 222 347T155 282T108 192T90 89Q90 69 95 57T109 44Q121 44 142 60T187 101T235 157Q249 176 262 194V195Z" />
<glyph unicode="b" glyph-name="b" horiz-adv-x="414" d="M85 678V684Q93 687 110 692T148 703T191 715T231 725L137 261Q156 292 178 320T222 371T266 406T308 420Q316 420 329 417T356 401T380 366T390 304Q390 255 373 200T325 99T248 21T146 -10Q118 -10 96
0T59 27T38 66T37 113L145 649L85 678ZM282 366Q270 366 253 354T216 321T173 271T126 206Q119 174 114 148T105 101Q101 78 97 60Q97 49 108 35T146 21Q180 21 210 47T263 115T299 205T313 301Q313 324 310 337T301 356T290 364T282 366Z" />
<glyph unicode="c" glyph-name="c" horiz-adv-x="331" d="M247 420Q281 420 304 414T340 403L313 332H309Q295 353 276 370T236 388Q213 388 189 368T144 313T111 233T98 138Q98 86 111 63T143 39Q161 39 180 49T218 73T250 102T273 127L281 122Q270 99 254 76T217
33T172 2T120 -10Q80 -10 52 26T23 125Q23 185 42 238T93 332T165 396T247 420Z" />
<glyph unicode="d" glyph-name="d" horiz-adv-x="431" d="M21 106Q21 164 42 220T100 320T191 391T309 418H330L378 649L317 678V684Q326 687 343 692T381 703T424 715T464 725L326 53L386 24L385 19Q376 16 359 13T321 5T280 -2T243 -8L274 142Q227 73 184 32T102
-10Q88 -10 74 -3T48 18T29 54T21 106ZM321 371Q317 376 306 380T278 385Q242 385 209 362T152 301T113 213T98 111Q98 78 107 60T127 42Q138 42 156 54T195 88T239 136T285 195L321 371Z" />
<glyph unicode="e" glyph-name="e" horiz-adv-x="331" d="M123 -10Q106 -10 88 -4T56 18T32 56T22 113Q22 171 42 226T95 325T170 394T256 420Q291 420 311 409T331 379Q331 369 322 352T290 317T226 282T120 257Q109 228 103 194T97 123Q97 78 112 58T150 38Q178
38 212 62T278 125L287 119Q255 59 213 25T123 -10ZM240 393Q214 393 184 363T130 280Q155 285 179 293T222 314T254 340T266 373Q266 393 240 393Z" />
<glyph unicode="f" glyph-name="f" horiz-adv-x="259" d="M56 54Q70 138 81 215T103 370H27V375L52 407H109Q114 433 118 459T127 513Q133 550 149 587T192 652T256 699T340 717Q383 717 411 711T461 696L430 641Q404 658 375 670T319 683Q294 683 275 672T242
643T218 599T203 543Q197 513 191 479T179 407H299L269 370H174Q166 321 159 272T144 175T129 87T116 12Q108 -29 95 -77T56 -167T-13 -238T-125 -270L-137 -215Q-116 -217 -101 -218T-73 -219Q-47 -219 -29 -210T3 -171T29 -88T56 54Z" />
<glyph unicode="g" glyph-name="g" horiz-adv-x="366" d="M43 239Q43 277 57 310T95 367T148 406T208 420Q230 420 252 410H396L385 374H296Q317 345 317 311Q317 267 302 233T262 176T210 141T157 128Q149 128 145 129Q119 108 112 97T105 79Q105 70 113 61T150
34Q186 13 214 -1T267 -30Q301 -49 322 -63T354 -90T369 -111T373 -130Q373 -161 352 -185T297 -227T224 -254T148 -263Q100 -263 60 -255T-11 -234T-57 -204T-74 -166Q-74 -158 -66 -144T-38 -112T17 -72T109 -25Q76 -6 59 12T41 52Q41 66 57 87T119 134Q87 145
65 173T43 239ZM233 -90Q207 -77 183 -65T135 -40Q72 -69 37 -98T1 -151Q1 -169 14 -184T49 -209T101 -224T164 -230Q201 -230 228 -222T273 -202T300 -178T309 -157Q309 -152 307 -147T298 -133T275 -115T233 -90ZM205 394Q188 394 172 381T142 347T122 297T114
238Q114 213 119 197T130 171T145 158T159 154Q173 154 188 166T216 201T237 251T246 312Q246 337 242 353T232 378T219 390T205 394Z" />
<glyph unicode="h" glyph-name="h" horiz-adv-x="435" d="M95 678V684Q103 687 120 692T159 703T202 715T243 725L144 261Q171 295 199 324T254 374T306 408T355 420Q378 420 388 410T398 386Q398 365 379 283T327 53L385 25V19Q376 16 359 13T321 5T280 -2T243
-8Q280 157 300 247T320 345Q320 355 307 355Q287 355 241 320T135 219L88 0H19L156 649L95 678Z" />
<glyph unicode="i" glyph-name="i" horiz-adv-x="219" d="M101 348L45 374V381Q53 384 69 389T104 401T145 413T184 423L115 53L175 24V19Q165 16 148 13T111 5T70 -2T33 -8L101 348ZM173 627Q190 627 202 615T215 585Q215 568 203 556T173 543Q156 543 144 555T131
585Q131 602 143 614T173 627Z" />
<glyph unicode="j" glyph-name="j" horiz-adv-x="208" d="M107 22Q101 -12 85 -48T46 -120T-2 -189T-55 -250L-63 -246Q-56 -233 -43 -208T-15 -145T15 -57T43 57L99 348L43 374V381Q51 384 66 389T101 401T142 413T182 423L107 22ZM171 627Q188 627 200 615T213
585Q213 568 201 556T171 543Q154 543 142 555T129 585Q129 602 141 614T171 627Z" />
<glyph unicode="k" glyph-name="k" horiz-adv-x="379" d="M152 650L90 678V684Q99 687 117 692T156 704T198 715T237 725L90 0H20L152 650ZM148 202Q191 241 217 268T256 313T274 343T278 362Q278 373 273 380T264 391V396L343 422Q346 418 351 407T356 383Q356
368 348 353T322 319T276 277T209 223Q250 153 276 112T318 48T343 14T359 -6L357 -11Q331 -10 314 -8T284 1T259 21T233 56T198 113T147 198L148 202Z" />
<glyph unicode="l" glyph-name="l" horiz-adv-x="215" d="M156 649L93 678V684Q101 687 118 692T157 703T200 715T242 725L106 53L167 24L166 19Q157 16 140 13T102 5T60 -2T23 -8L156 649Z" />
<glyph unicode="m" glyph-name="m" horiz-adv-x="633" d="M29 0L100 348L46 374V381Q53 384 69 389T106 401T148 413T188 423L154 264Q177 296 201 324T250 374T299 407T344 420Q367 420 377 410T387 386Q387 375 381 345T364 266Q388 297 413 325T462 374T509
407T553 420Q576 420 586 410T597 386Q597 366 577 284T525 53L583 25V19Q573 16 556 13T519 5T478 -2T441 -8Q479 157 499 248T520 346Q520 355 508 355Q489 355 447 319T354 220L305 0H234Q272 165 291 252T310 346Q310 349 308 352T298 355Q280 355 238 320T144
219L98 0H29Z" />
<glyph unicode="n" glyph-name="n" horiz-adv-x="445" d="M29 0L100 348L46 374V381Q53 384 69 389T106 401T148 413T188 423L153 260Q180 294 208 323T264 373T316 407T365 420Q388 420 398 410T408 386Q408 365 389 283T337 53L395 26V19Q386 16 369 13T331
5T290 -2T253 -8Q290 157 310 247T330 345Q330 355 317 355Q297 355 251 320T144 219L98 0H29Z" />
<glyph unicode="o" glyph-name="o" horiz-adv-x="398" d="M163 -10Q132 -10 107 2T63 35T34 86T23 150Q23 203 41 251T89 337T158 397T239 420Q268 420 293 408T336 375T365 326T376 264Q376 203 357 153T307 66T238 10T163 -10ZM167 19Q190 19 213 38T256 90T287
170T299 270Q299 328 283 359T237 391Q212 391 188 369T144 312T113 233T101 142Q101 19 167 19Z" />
<glyph unicode="p" glyph-name="p" horiz-adv-x="417" d="M14 377Q28 384 46 390Q61 395 81 401T127 413L140 476L216 499L200 421Q205 421 208 421T217 422Q310 422 354 385T398 285Q398 240 378 193T320 105T231 36T115 3L70 -219L164 -264L163 -270H-64L-63
-264L-2 -223L121 386Q90 383 64 377T18 366L14 377ZM320 280Q320 325 291 355T193 389L124 47Q130 44 141 44Q173 44 205 62T262 113T304 188T320 280Z" />
<glyph unicode="q" glyph-name="q" horiz-adv-x="424" d="M315 -264V-270H111L112 -264L201 -221L278 154Q257 121 236 91T194 39T151 3T109 -10Q97 -10 82 -3T53 19T31 60T22 121Q22 176 43 229T102 324T193 392T309 418Q319 418 329 417T346 413L407 431L274
-222L315 -264ZM132 42Q143 42 160 55T198 92T242 146T290 213L324 380Q305 387 282 387Q245 387 212 364T153 303T114 215T99 114Q99 80 109 61T132 42Z" />
<glyph unicode="r" glyph-name="r" horiz-adv-x="316" d="M29 0L100 348L44 374V381Q52 384 68 389T105 401T147 413T187 423L151 252Q194 330 226 375T275 420Q289 420 306 414T332 403L302 327Q295 330 283 336T259 342Q253 342 244 335T220 312T187 269T140
201L97 0H29Z" />
<glyph unicode="s" glyph-name="s" horiz-adv-x="278" d="M174 421Q201 421 225 415T261 405L244 335H239Q224 366 207 379T170 393Q155 393 142 382T128 350Q128 342 131 328T147 291Q156 274 163 261T177 234T192 206T209 175Q222 150 226 130T231 93Q231 75
223 57T200 24T162 0T112 -10Q98 -10 83 -7T53 0T27 9T8 18Q10 41 14 73T24 133H30Q40 74 63 48T114 22Q143 22 155 38T168 72Q168 82 165 96T146 141Q129 174 116 199T86 253Q75 274 71 292T67 324Q67 343 74 360T95 391T129 413T174 421Z" />
<glyph unicode="t" glyph-name="t" horiz-adv-x="293" d="M174 370L119 117Q113 91 110 76T106 53Q106 47 109 42T121 37Q134 37 148 44T177 63T203 87T227 110L235 106Q229 92 216 73T185 35T143 3T92 -10Q63 -10 47 2T31 33Q31 40 34 54T41 91L103 370H53V375L194
471L181 407H322L293 370H174Z" />
<glyph unicode="u" glyph-name="u" horiz-adv-x="432" d="M283 176Q259 140 233 107T180 49T127 9T79 -6Q56 -6 45 4T33 26Q33 40 40 67Q48 102 65 172T105 348L50 374V381Q58 384 74 389T111 401T153 413T193 423Q156 258 134 167T112 67Q112 63 114 61T124 58Q135
58 155 73T200 114T249 169T295 228L334 410H404L330 51L387 25V19Q378 17 360 13T322 6T280 -2T244 -8L283 176Z" />
<glyph unicode="v" glyph-name="v" horiz-adv-x="356" d="M358 379Q358 359 347 331T304 257T214 145T62 -19H52Q59 41 65 100T76 211T82 300T83 355L33 381L34 388Q52 394 86 404T152 423Q154 396 152 350T146 255T137 160T127 89Q181 155 212 201T260 279T280
329T285 359Q285 370 280 379T267 395V398L342 421Q347 416 352 405T358 379Z" />
<glyph unicode="w" glyph-name="w" horiz-adv-x="508" d="M313 417Q318 388 320 348T323 265T322 180T316 103Q359 166 384 209T421 282T437 329T440 359Q440 379 425 397V400L498 420Q502 415 506 405T510 381Q510 361 500 333T462 259T383 146T252 -19H241Q245
12 248 50T253 127T258 204T261 275Q223 208 175 136T58 -19H47Q55 40 62 98T74 206T81 295T84 355L34 381L35 388Q44 391 59 395T91 405T125 415T154 423Q155 398 153 359T147 277T138 191T128 116Q164 170 210 248T302 417H313V417Z" />
<glyph unicode="x" glyph-name="x" horiz-adv-x="374" d="M266 43L328 17L327 12Q320 10 307 7T277 1T244 -5T211 -11L164 164Q131 111 110 77T75 24T49 -4T25 -12Q13 -12 0 -8T-18 -2L-2 63L0 65Q8 62 18 59T36 55Q42 55 50 61T71 83T104 125T156 194L113 358L56
384V390Q73 395 106 405T168 423L209 264Q240 313 261 344T298 394T326 419T350 426Q362 426 373 423T391 418L374 355L371 353Q366 355 355 358T338 361Q330 361 321 356T298 336T265 297T216 235L266 43Z" />
<glyph unicode="y" glyph-name="y" horiz-adv-x="344" d="M274 349Q274 375 250 396V399L330 421Q335 414 340 402T345 375Q345 350 333 320T297 249T236 154T150 28L-56 -271L-136 -260V-254Q-108 -230 -75 -196T-10 -127T50 -58T96 -2Q94 49 92 101T85 202T77
290T70 355L20 382V388Q29 391 41 395T69 404T100 414T130 423Q135 392 139 350T147 261T153 168T155 85Q188 140 211 181T248 254T268 308T274 349Z" />
<glyph unicode="z" glyph-name="z" horiz-adv-x="352" d="M-15 6L274 357H204Q141 357 106 353T57 347L54 351L110 416L363 408L362 403L72 57H128Q165 57 190 58T236 62T273 68T308 76L311 72L253 -4L-16 0L-15 6Z" />
<glyph unicode="{" glyph-name="braceleft" horiz-adv-x="277" d="M189 200Q189 168 171 135T132 69T93 3T75 -63Q75 -101 94 -128T152 -175L149 -182Q87 -159 54 -126T21 -50Q21 -20 40 13T84 80T127 149T147 217Q147 255 125 268T61 283L65 301Q129 301 157
324T186 386Q186 407 178 434T159 489T140 544T131 592Q131 615 139 638T170 684T228 724T321 756L324 749Q287 738 261 721T219 684T195 642T187 599Q187 577 194 552T209 502T224 451T231 404Q231 380 222 360T197 325T161 301T121 290Q131 288 143 282T165 264T182
237T189 200Z" />
<glyph unicode="|" glyph-name="bar" horiz-adv-x="256" d="M110 744H146V-233H110V744Z" />
<glyph unicode="}" glyph-name="braceright" horiz-adv-x="277" d="M109 374Q109 406 127 439T166 505T205 571T223 637Q223 675 204 702T146 749L149 756Q211 733 244 700T277 624Q277 594 258 561T214 494T171 425T151 357Q151 319 173 306T237 291L233 273Q169
273 141 250T112 188Q112 167 120 140T139 85T158 30T167 -18Q167 -41 159 -64T128 -110T70 -150T-23 -182L-26 -175Q11 -164 37 -147T79 -110T103 -68T111 -25Q111 -3 104 22T89 72T74 123T67 170Q67 194 76 214T101 249T137 273T177 284Q167 286 155 292T133
310T116 337T109 374Z" />
<glyph unicode="~" glyph-name="asciitilde" horiz-adv-x="413" d="M306 269Q321 269 336 279T364 305T388 339T409 374L415 373Q408 344 397 316T372 264T339 227T298 212Q277 212 254 224T209 252T167 280T131 293Q116 293 101 282T73 255T49 220T29 186L23
187Q28 211 38 239T64 293T98 334T139 351Q160 351 183 338T228 310T271 282T306 269Z" />
<glyph unicode="&#xa1;" glyph-name="exclamdown" horiz-adv-x="211" d="M99 201H110L60 -250H-23L99 201ZM143 324Q123 324 109 337T95 372Q95 392 109 406T143 420Q164 420 177 406T191 372Q191 351 178 338T143 324Z" />
<glyph unicode="&#xa2;" glyph-name="cent" horiz-adv-x="335" d="M289 497L267 419Q296 417 316 412T347 403L320 332H316Q305 349 291 365T258 387L159 38Q177 41 195 52T229 76T259 104T280 127L288 122Q279 101 265 80T232 41T192 10T146 -8L124 -87H96L118
-10Q78 -7 51 29T24 125Q24 182 42 234T91 326T159 391T239 419L261 497H289ZM99 138Q99 94 108 71T132 40L230 388Q206 383 183 361T141 305T111 228T99 138Z" />
<glyph unicode="&#xa3;" glyph-name="sterling" horiz-adv-x="477" d="M-14 -9Q7 29 26 53T62 97T93 140T119 198Q125 218 130 239T140 284H54L59 315H145Q150 348 154 386T164 470Q168 512 185 549T228 613T288 656T361 672Q402 672 433 667T473 659L457 563H451Q420
638 356 638Q317 638 288 602T248 499Q239 448 232 402T217 315H358L353 284H210Q201 246 189 214Q172 175 148 146T83 88Q114 103 143 103Q165 103 186 96T229 81T269 66T308 59Q345 59 377 81T439 145L445 142Q436 111 422 84T389 37T349 5T301 -7Q278 -7 255
2T208 24T162 45T115 55Q95 55 78 49T46 33T18 11T-8 -13L-14 -9Z" />
<glyph unicode="&#xa5;" glyph-name="yen" horiz-adv-x="523" d="M447 230H308L279 50L336 6L335 0H126L127 6L199 50L228 230H89L94 260H233L243 324H104L109 354H237L130 612L84 656L85 662H289L288 656L215 612L310 377L475 612L420 656L421 662H582L581 656L518
612L336 354H467L462 324H323L313 260H452L447 230Z" />
<glyph unicode="&#xa6;" glyph-name="brokenbar" horiz-adv-x="256" d="M110 744H146V311H110V744ZM110 214H146V-234H110V214Z" />
<glyph unicode="&#xa7;" glyph-name="section" horiz-adv-x="387" d="M52 308Q52 336 62 357T87 394T120 420T156 436Q140 477 140 519Q140 553 152 581T185 630T233 662T289 673Q312 673 335 670T369 664L355 582H350Q340 609 324 626T278 644Q245 644 221 617T197
543Q197 520 201 500T216 457T241 406T277 341Q313 277 331 234T350 151Q350 121 340 99T315 61T283 35T250 18Q263 -20 263 -61Q263 -94 252 -126T220 -183T170 -223T104 -238Q83 -238 64 -234T31 -225T8 -214T-5 -206Q-5 -198 -3 -184T1 -154T6 -122T12 -90H18Q23
-141 43 -173T107 -206Q149 -206 177 -172T206 -79Q206 -35 188 10T132 117Q94 180 73 224T52 308ZM177 168Q199 129 216 97T244 35Q260 47 276 69T293 126Q293 142 291 158T281 193T262 235T232 290Q209 328 192 359T162 420Q142 410 125 389T108 332Q108 314
112 298T125 262T147 221T177 168Z" />
<glyph unicode="&#xa8;" glyph-name="dieresis" horiz-adv-x="400" d="M345 624Q362 624 373 613T385 584Q385 567 374 555T345 543Q328 543 317 555T305 584Q305 601 316 612T345 624ZM190 624Q207 624 218 613T230 584Q230 567 219 555T190 543Q173 543 162
555T150 584Q150 601 161 612T190 624Z" />
<glyph unicode="&#xa9;" glyph-name="copyright" horiz-adv-x="780" d="M425 163Q385 163 350 175T289 210T248 265T233 336Q233 371 246 403T285 459T346 497T425 512Q460 512 489 507T532 499V415H529Q512 440 486 461T423 482Q396 482 375 471T338 441T315
396T307 340Q307 307 317 281T343 235T382 206T427 195Q448 195 465 202T497 219T521 240T537 259H540V186Q528 181 497 172T425 163ZM410 639Q346 639 292 615T199 550T137 452T115 332Q115 269 138 213T202 115T295 49T410 25Q473 25 527 49T620 114T682 211T705
332Q705 395 682 450T620 548T526 614T410 639ZM410 674Q481 674 543 647T651 574T723 465T750 332Q750 260 724 198T652 89T544 17T410 -10Q337 -10 275 16T168 89T96 197T70 332Q70 404 96 466T167 574T275 647T410 674Z" />
<glyph unicode="&#xaa;" glyph-name="ordfeminine" horiz-adv-x="300" d="M313 396V391Q306 389 293 387T263 381T231 376T204 372L224 468Q211 449 196 432T166 401T136 379T108 371Q90 371 76 388T61 439Q61 470 74 505T113 572T177 627T267 657L328 689L273
414L313 396ZM133 413Q139 413 150 421T175 442T204 471T232 506L259 633Q234 630 210 613T166 568T134 507T122 437Q122 426 125 420T133 413Z" />
<glyph unicode="&#xab;" glyph-name="guillemotleft" horiz-adv-x="360" d="M274 66L175 227L334 379L341 373L236 220L282 69L274 66ZM141 66L42 227L201 379L208 373L103 220L149 69L141 66Z" />
<glyph unicode="&#xae;" glyph-name="registered" horiz-adv-x="391" d="M251 684Q287 684 319 670T374 632T412 576T426 508Q426 470 413 438T375 382T319 345T251 331Q214 331 182 344T126 382T89 438T75 508Q75 545 88 577T126 633T182 670T251 684ZM251 658Q220
658 194 646T149 614T118 567T107 508Q107 477 118 450T149 402T195 370T251 358Q281 358 307 369T353 401T384 448T395 508Q395 538 384 565T354 613T308 646T251 658ZM171 426V431L190 446V584L171 599V604H264Q288 604 303 593T319 562Q319 545 309 535T290
520L318 473Q326 459 333 450T351 432V427Q346 426 339 426T324 425Q306 425 297 433T279 458L252 508H233V446L256 431V426H171ZM233 584V527H253Q262 527 269 535T276 555Q276 570 267 577T246 584H233Z" />
<glyph unicode="&#xaf;" glyph-name="macron" horiz-adv-x="400" d="M174 579H367L358 534H165L174 579Z" />
<glyph unicode="&#xb0;" glyph-name="degree" horiz-adv-x="245" d="M116 561Q116 529 133 512T172 494Q202 494 220 518T239 577Q239 609 222 626T184 643Q153 643 135 619T116 561ZM85 561Q85 581 92 600T112 635T143 660T184 670Q218 670 244 647T270 577Q270
556 263 537T243 502T212 477T172 467Q137 467 111 490T85 561Z" />
<glyph unicode="&#xb2;" glyph-name="twosuperior" horiz-adv-x="217" d="M220 428H48L49 439Q92 482 120 513T166 567T190 608T197 641Q197 661 185 672T153 683Q136 683 124 676T104 664L99 668Q110 690 131 705T184 721Q216 721 234 702T253 652Q253 631 244
611T217 569T172 525T109 473H249L220 428Z" />
<glyph unicode="&#xb3;" glyph-name="threesuperior" horiz-adv-x="189" d="M97 579Q129 598 151 616T173 655Q173 668 166 677T138 686Q124 686 114 680T99 671L95 675Q99 682 104 690T119 705T140 716T170 721Q195 721 209 708T224 673Q224 650 205 633T159
604Q188 602 207 587T227 544Q227 524 218 505T187 469T133 440T51 421L49 428Q112 454 140 479T168 533Q168 554 154 563T118 573Q107 573 99 571L97 579Z" />
<glyph unicode="&#xb4;" glyph-name="acute" horiz-adv-x="400" d="M182 495L173 500L303 712L355 670L182 495Z" />
<glyph unicode="&#xb6;" glyph-name="paragraph" horiz-adv-x="446" d="M110 0L111 6L183 50L238 381Q205 381 176 390T126 417T92 460T80 518Q80 587 128 624T260 662H331L220 0H110ZM319 50L376 6L375 0H265L377 662H487L486 656L415 612L319 50Z" />
<glyph unicode="&#xb7;" glyph-name="periodcentered" horiz-adv-x="182" d="M101 299Q121 299 135 286T149 251Q149 231 135 217T101 203Q80 203 67 217T53 251Q53 272 66 285T101 299Z" />
<glyph unicode="&#xb8;" glyph-name="cedilla" horiz-adv-x="400" d="M188 0L136 -80Q156 -88 173 -105T190 -149Q190 -191 146 -224T31 -281L27 -274Q43 -265 62 -252T97 -224T125 -193T137 -161Q137 -141 121 -131T91 -115L90 -112Q110 -82 126 -57Q140 -36
151 -19T162 0H188Z" />
<glyph unicode="&#xb9;" glyph-name="onesuperior" horiz-adv-x="154" d="M52 428V432L89 455L131 667L100 683V687L194 722L142 455L168 432V428H52Z" />
<glyph unicode="&#xba;" glyph-name="ordmasculine" horiz-adv-x="300" d="M180 395Q195 395 210 408T239 444T260 498T269 565Q269 603 258 624T229 646Q212 646 196 631T167 592T145 537T137 476Q137 438 148 417T180 395ZM177 370Q132 370 104 402T76 482Q76
519 89 553T123 613T172 654T230 670Q274 670 302 639T330 561Q330 519 317 484T281 423T232 384T177 370Z" />
<glyph unicode="&#xbb;" glyph-name="guillemotright" horiz-adv-x="360" d="M84 379L183 218L24 66L17 72L122 225L76 376L84 379ZM217 379L316 218L157 66L150 72L255 225L209 376L217 379Z" />
<glyph unicode="&#xbc;" glyph-name="onequarter" horiz-adv-x="482" d="M63 375V379L100 402L142 614L111 630V634L205 669L153 402L179 379V375H63ZM414 3L413 0H302L303 3L337 27L346 75H228L229 82L402 288H440L405 110H455L432 75H398L389 27L414 3ZM352
110L374 222L279 110H352ZM485 662H523L33 0H-5L485 662Z" />
<glyph unicode="&#xbd;" glyph-name="onehalf" horiz-adv-x="511" d="M485 662H523L33 0H-5L485 662ZM63 375V379L100 402L142 614L111 630V634L205 669L153 402L179 379V375H63ZM426 0H254L255 11Q298 54 326 85T372 139T396 180T403 213Q403 233 391 244T359
255Q342 255 330 248T310 236L305 240Q316 262 337 277T390 293Q422 293 440 274T459 224Q459 203 450 183T423 141T378 97T315 45H455L426 0Z" />
<glyph unicode="&#xbe;" glyph-name="threequarters" horiz-adv-x="481" d="M492 662H530L40 0H2L492 662ZM108 526Q140 545 162 563T184 602Q184 615 177 624T149 633Q135 633 125 627T110 618L106 622Q110 629 115 637T130 652T151 663T181 668Q206 668 220
655T235 620Q235 597 216 580T170 551Q199 549 218 534T238 491Q238 471 229 452T198 416T144 387T62 368L60 375Q123 401 151 426T179 480Q179 501 165 510T129 520Q118 520 110 518L108 526ZM414 3L413 0H302L303 3L337 27L346 75H228L229 82L402 288H440L405
110H455L432 75H398L389 27L414 3ZM352 110L374 222L279 110H352Z" />
<glyph unicode="&#xbf;" glyph-name="questiondown" horiz-adv-x="294" d="M46 -14Q62 1 83 19T122 55Q141 73 148 87T160 123Q165 143 168 163T174 201H183Q185 189 187 174T191 143T194 114T195 91Q195 69 187 54T156 14L88 -55Q64 -81 50 -106T35 -160Q35 -194
51 -211T90 -229Q107 -229 123 -220T153 -199T177 -174T193 -154H200L181 -250Q175 -252 150 -256T92 -260Q35 -260 0 -235T-35 -159Q-35 -126 -19 -93T46 -14ZM202 324Q182 324 168 337T154 372Q154 392 168 406T202 420Q223 420 236 406T250 372Q250 351 237
338T202 324Z" />
<glyph unicode="&#xc0;" glyph-name="Agrave" horiz-adv-x="567" d="M128 6L126 0H-36L-34 6L31 50L366 675H375L483 50L527 6L525 0H330L332 6L408 50L367 281H194L72 50L128 6ZM211 312H362L324 526L211 312ZM261 781L299 839L457 711L451 703L261 781Z" />
<glyph unicode="&#xc1;" glyph-name="Aacute" horiz-adv-x="567" d="M128 6L126 0H-36L-34 6L31 50L366 675H375L483 50L527 6L525 0H330L332 6L408 50L367 281H194L72 50L128 6ZM211 312H362L324 526L211 312ZM283 703L278 712L476 839L504 779L283 703Z" />
<glyph unicode="&#xc2;" glyph-name="Acircumflex" horiz-adv-x="567" d="M128 6L126 0H-36L-34 6L31 50L366 675H375L483 50L527 6L525 0H330L332 6L408 50L367 281H194L72 50L128 6ZM211 312H362L324 526L211 312ZM396 831L494 713L489 707L390 762L260 707L255
714L396 831Z" />
<glyph unicode="&#xc3;" glyph-name="Atilde" horiz-adv-x="567" d="M128 6L126 0H-36L-34 6L31 50L366 675H375L483 50L527 6L525 0H330L332 6L408 50L367 281H194L72 50L128 6ZM211 312H362L324 526L211 312ZM326 806Q334 806 349 803T382 795T416 787T441 783Q448
783 457 788T475 800T493 816T507 832L514 829Q508 814 499 797T480 766T457 741T434 731Q423 731 407 734T373 742T341 750T319 754Q312 754 303 749T285 735T266 718T251 702L244 705Q250 719 259 736T279 769T303 795T326 806Z" />
<glyph unicode="&#xc4;" glyph-name="Adieresis" horiz-adv-x="567" d="M128 6L126 0H-36L-34 6L31 50L366 675H375L483 50L527 6L525 0H330L332 6L408 50L367 281H194L72 50L128 6ZM211 312H362L324 526L211 312ZM462 807Q479 807 490 796T502 767Q502 750 491
738T462 726Q445 726 434 738T422 767Q422 784 433 795T462 807ZM301 807Q318 807 329 796T341 767Q341 750 330 738T301 726Q284 726 273 738T261 767Q261 784 272 795T301 807Z" />
<glyph unicode="&#xc5;" glyph-name="Aring" horiz-adv-x="567" d="M383 6L381 0H219L221 6L286 50L621 675H630L738 50L782 6L780 0H585L587 6L663 50L622 281H449L327 50L383 6ZM466 312H617L579 526L466 312ZM330 777Q330 757 343 742T378 726Q399 726 412
741T426 777Q426 797 413 812T378 828Q356 828 343 813T330 777ZM300 777Q300 793 306 807T323 831T348 848T378 854Q410 854 433 832T456 777Q456 743 433 722T378 700Q346 700 323 721T300 777Z" />
<glyph unicode="&#xc6;" glyph-name="AE" horiz-adv-x="772" d="M361 50L405 317H251L70 50L127 6L126 0H-37L-36 6L28 50L410 612L355 656L356 662H779L760 545H753L708 630H537L494 369H669L722 438H729L701 269H694L664 337H488L438 33H624L708 138H715L692
0H288L289 6L361 50ZM410 349L454 616L273 349H410Z" />
<glyph unicode="&#xc7;" glyph-name="Ccedilla" horiz-adv-x="589" d="M338 -10Q325 -10 313 -9L267 -80Q287 -88 304 -105T321 -149Q321 -191 277 -224T162 -281L158 -274Q174 -265 193 -252T228 -224T256 -193T268 -161Q268 -141 252 -131T222 -115L221 -112Q241
-82 257 -57Q271 -36 282 -18Q286 -11 289 -6Q259 -2 231 7Q181 25 143 60T81 147T58 269Q58 348 87 421T168 550T290 639T442 672Q504 672 546 663T602 649L583 542H577Q570 561 558 578T529 609T489 631T435 639Q373 639 320 610T229 531T168 413T146 269Q146
216 160 171T200 93T261 42T338 23Q374 23 404 33T456 59T494 89T519 115H525L506 17Q495 12 452 1T338 -10Z" />
<glyph unicode="&#xc8;" glyph-name="Egrave" horiz-adv-x="487" d="M-3 0L-2 6L70 50L163 612L107 656L108 662H494L474 545H467L422 630H246L203 369H384L437 438H444L416 269H409L379 337H197L147 33H339L422 138H429L407 0H-3ZM228 781L266 839L424 711L418
703L228 781Z" />
<glyph unicode="&#xc9;" glyph-name="Eacute" horiz-adv-x="487" d="M-3 0L-2 6L70 50L163 612L107 656L108 662H494L474 545H467L422 630H246L203 369H384L437 438H444L416 269H409L379 337H197L147 33H339L422 138H429L407 0H-3ZM237 703L232 712L430 839L458
779L237 703Z" />
<glyph unicode="&#xca;" glyph-name="Ecircumflex" horiz-adv-x="487" d="M-3 0L-2 6L70 50L163 612L107 656L108 662H494L474 545H467L422 630H246L203 369H384L437 438H444L416 269H409L379 337H197L147 33H339L422 138H429L407 0H-3ZM348 831L446 713L441 707L342
762L212 707L207 714L348 831Z" />
<glyph unicode="&#xcb;" glyph-name="Edieresis" horiz-adv-x="487" d="M-3 0L-2 6L70 50L163 612L107 656L108 662H494L474 545H467L422 630H246L203 369H384L437 438H444L416 269H409L379 337H197L147 33H339L422 138H429L407 0H-3ZM416 807Q433 807 444 796T456
767Q456 750 445 738T416 726Q399 726 388 738T376 767Q376 784 387 795T416 807ZM255 807Q272 807 283 796T295 767Q295 750 284 738T255 726Q238 726 227 738T215 767Q215 784 226 795T255 807Z" />
<glyph unicode="&#xcc;" glyph-name="Igrave" horiz-adv-x="274" d="M-3 0L-2 6L70 50L163 612L107 656L108 662H315L314 656L243 612L150 50L207 6L206 0H-3ZM374 781L412 839L570 711L564 703L374 781Z" />
<glyph unicode="&#xcd;" glyph-name="Iacute" horiz-adv-x="274" d="M-3 0L-2 6L70 50L163 612L107 656L108 662H315L314 656L243 612L150 50L207 6L206 0H-3ZM387 703L382 712L580 839L608 779L387 703Z" />
<glyph unicode="&#xce;" glyph-name="Icircumflex" horiz-adv-x="274" d="M-3 0L-2 6L70 50L163 612L107 656L108 662H315L314 656L243 612L150 50L207 6L206 0H-3ZM494 831L592 713L587 707L488 762L358 707L353 714L494 831Z" />
<glyph unicode="&#xcf;" glyph-name="Idieresis" horiz-adv-x="274" d="M-3 0L-2 6L70 50L163 612L107 656L108 662H315L314 656L243 612L150 50L207 6L206 0H-3ZM564 807Q581 807 592 796T604 767Q604 750 593 738T564 726Q547 726 536 738T524 767Q524 784 535
795T564 807ZM403 807Q420 807 431 796T443 767Q443 750 432 738T403 726Q386 726 375 738T363 767Q363 784 374 795T403 807Z" />
<glyph unicode="&#xd0;" glyph-name="Eth" horiz-adv-x="637" d="M338 662Q394 662 445 644T536 591T598 504T622 382Q622 313 598 245T527 122T416 34T269 0H-3L-2 6L70 50L115 321H40L46 353H120L163 612L107 656L108 662H338ZM195 321L150 49Q166 43 194 37T269
31Q323 31 371 57T455 129T512 238T534 375Q534 441 515 489T466 569T395 616T313 631H246L200 353H382L376 321H195Z" />
<glyph unicode="&#xd1;" glyph-name="Ntilde" horiz-adv-x="658" d="M505 0L189 528L111 55L174 6L173 0H-13L-11 6L70 55L156 579Q141 602 127 621T102 657V662H201L513 132L591 607L527 657L528 662H713L712 657L632 607L533 0H505ZM376 806Q384 806 399 803T432
795T466 787T491 783Q498 783 507 788T525 800T543 816T557 832L564 829Q558 814 549 797T530 766T507 741T484 731Q473 731 457 734T423 742T391 750T369 754Q362 754 353 749T335 735T316 718T301 702L294 705Q300 719 309 736T329 769T353 795T376 806Z" />
<glyph unicode="&#xd2;" glyph-name="Ograve" horiz-adv-x="665" d="M400 640Q348 640 303 609T223 526T170 406T150 262Q150 205 163 161T198 85T249 38T310 22Q361 22 406 52T485 135T540 259T560 411Q560 468 547 510T511 582T460 625T400 640ZM63 262Q63 344
90 418T164 549T272 638T400 672Q454 672 499 653T577 598T628 515T647 410Q647 322 620 246T546 112T438 23T310 -10Q259 -10 215 9T136 63T83 149T63 262ZM315 781L353 839L511 711L505 703L315 781Z" />
<glyph unicode="&#xd3;" glyph-name="Oacute" horiz-adv-x="665" d="M400 640Q348 640 303 609T223 526T170 406T150 262Q150 205 163 161T198 85T249 38T310 22Q361 22 406 52T485 135T540 259T560 411Q560 468 547 510T511 582T460 625T400 640ZM63 262Q63 344
90 418T164 549T272 638T400 672Q454 672 499 653T577 598T628 515T647 410Q647 322 620 246T546 112T438 23T310 -10Q259 -10 215 9T136 63T83 149T63 262ZM320 703L315 712L513 839L541 779L320 703Z" />
<glyph unicode="&#xd4;" glyph-name="Ocircumflex" horiz-adv-x="665" d="M400 640Q348 640 303 609T223 526T170 406T150 262Q150 205 163 161T198 85T249 38T310 22Q361 22 406 52T485 135T540 259T560 411Q560 468 547 510T511 582T460 625T400 640ZM63 262Q63
344 90 418T164 549T272 638T400 672Q454 672 499 653T577 598T628 515T647 410Q647 322 620 246T546 112T438 23T310 -10Q259 -10 215 9T136 63T83 149T63 262ZM438 831L536 713L531 707L432 762L302 707L297 714L438 831Z" />
<glyph unicode="&#xd5;" glyph-name="Otilde" horiz-adv-x="665" d="M400 640Q348 640 303 609T223 526T170 406T150 262Q150 205 163 161T198 85T249 38T310 22Q361 22 406 52T485 135T540 259T560 411Q560 468 547 510T511 582T460 625T400 640ZM63 262Q63 344
90 418T164 549T272 638T400 672Q454 672 499 653T577 598T628 515T647 410Q647 322 620 246T546 112T438 23T310 -10Q259 -10 215 9T136 63T83 149T63 262ZM372 806Q380 806 395 803T428 795T462 787T487 783Q494 783 503 788T521 800T539 816T553 832L560 829Q554
814 545 797T526 766T503 741T480 731Q469 731 453 734T419 742T387 750T365 754Q358 754 349 749T331 735T312 718T297 702L290 705Q296 719 305 736T325 769T349 795T372 806Z" />
<glyph unicode="&#xd6;" glyph-name="Odieresis" horiz-adv-x="665" d="M400 640Q348 640 303 609T223 526T170 406T150 262Q150 205 163 161T198 85T249 38T310 22Q361 22 406 52T485 135T540 259T560 411Q560 468 547 510T511 582T460 625T400 640ZM63 262Q63
344 90 418T164 549T272 638T400 672Q454 672 499 653T577 598T628 515T647 410Q647 322 620 246T546 112T438 23T310 -10Q259 -10 215 9T136 63T83 149T63 262ZM505 807Q522 807 533 796T545 767Q545 750 534 738T505 726Q488 726 477 738T465 767Q465 784 476
795T505 807ZM344 807Q361 807 372 796T384 767Q384 750 373 738T344 726Q327 726 316 738T304 767Q304 784 315 795T344 807Z" />
<glyph unicode="&#xd7;" glyph-name="multiply" horiz-adv-x="363" d="M175 247L88 376L117 397L200 271L333 397L355 373L218 244L306 112L278 93L193 220L59 93L37 116L175 247Z" />
<glyph unicode="&#xd8;" glyph-name="Oslash" horiz-adv-x="665" d="M63 262Q63 344 90 418T164 549T272 638T400 672Q442 672 479 660T546 625L607 710L633 692L571 605Q607 570 627 520T647 410Q647 322 620 246T546 112T438 23T310 -10Q228 -10 167 36L97 -62L71
-44L142 57Q105 92 84 144T63 262ZM400 640Q348 640 303 609T223 526T170 406T150 262Q150 216 158 179T182 112L513 578Q491 609 462 624T400 640ZM560 411Q559 494 531 549L200 83Q222 53 250 38T310 22Q361 22 406 52T485 135T540 259T560 411Z" />
<glyph unicode="&#xd9;" glyph-name="Ugrave" horiz-adv-x="637" d="M549 199Q542 158 524 121T477 54T407 8T314 -10Q254 -10 209 6T134 51T93 122T89 214L155 612L99 656L100 662H307L306 656L235 612L168 211Q161 170 171 138T202 84T256 51T327 39Q367 39
398 51T451 85T488 136T508 199L577 612L521 656L522 662H689L688 656L617 612L549 199ZM309 781L347 839L505 711L499 703L309 781Z" />
<glyph unicode="&#xda;" glyph-name="Uacute" horiz-adv-x="637" d="M549 199Q542 158 524 121T477 54T407 8T314 -10Q254 -10 209 6T134 51T93 122T89 214L155 612L99 656L100 662H307L306 656L235 612L168 211Q161 170 171 138T202 84T256 51T327 39Q367 39
398 51T451 85T488 136T508 199L577 612L521 656L522 662H689L688 656L617 612L549 199ZM321 703L316 712L514 839L542 779L321 703Z" />
<glyph unicode="&#xdb;" glyph-name="Ucircumflex" horiz-adv-x="637" d="M549 199Q542 158 524 121T477 54T407 8T314 -10Q254 -10 209 6T134 51T93 122T89 214L155 612L99 656L100 662H307L306 656L235 612L168 211Q161 170 171 138T202 84T256 51T327 39Q367
39 398 51T451 85T488 136T508 199L577 612L521 656L522 662H689L688 656L617 612L549 199ZM439 831L537 713L532 707L433 762L303 707L298 714L439 831Z" />
<glyph unicode="&#xdc;" glyph-name="Udieresis" horiz-adv-x="637" d="M549 199Q542 158 524 121T477 54T407 8T314 -10Q254 -10 209 6T134 51T93 122T89 214L155 612L99 656L100 662H307L306 656L235 612L168 211Q161 170 171 138T202 84T256 51T327 39Q367
39 398 51T451 85T488 136T508 199L577 612L521 656L522 662H689L688 656L617 612L549 199ZM501 807Q518 807 529 796T541 767Q541 750 530 738T501 726Q484 726 473 738T461 767Q461 784 472 795T501 807ZM340 807Q357 807 368 796T380 767Q380 750 369 738T340
726Q323 726 312 738T300 767Q300 784 311 795T340 807Z" />
<glyph unicode="&#xdd;" glyph-name="Yacute" horiz-adv-x="548" d="M450 656L451 662H612L611 656L548 612L338 320L294 50L351 6L350 0H141L142 6L214 50L257 315L130 612L84 656L85 662H287L286 656L213 612L321 353L505 612L450 656ZM283 703L278 712L476
839L504 779L283 703Z" />
<glyph unicode="&#xde;" glyph-name="Thorn" horiz-adv-x="476" d="M220 472L150 50L207 6L206 0H-3L-2 6L70 50L163 612L107 656L108 662H315L314 656L243 612L225 503H287Q326 503 361 494T422 468T464 424T479 364Q479 323 458 291T401 235T316 199T211 185L213
193Q298 209 347 251T397 361Q397 416 363 444T269 472H220Z" />
<glyph unicode="&#xdf;" glyph-name="germandbls" horiz-adv-x="428" d="M325 717Q384 717 417 688T450 613Q450 582 438 558T407 514T366 477T326 443T295 409T282 371Q282 348 297 323T336 262Q350 240 361 222T379 186T391 152T395 114Q395 90 386 68T358 29T315
1T257 -10Q243 -10 229 -7T201 0T176 9T158 18Q160 39 164 72T175 133H181Q191 74 212 48T260 22Q294 22 313 43T332 97Q332 112 329 124T320 150T303 180T279 219Q254 258 239 285T223 345Q223 370 235 390T264 428T303 464T341 503T371 550T383 610Q383 645 365
665T311 685Q284 685 264 674T230 643T206 597T192 543Q181 486 168 415T141 272T115 131T92 12Q84 -29 71 -77T31 -167T-39 -238T-151 -270L-163 -215Q-142 -217 -127 -218T-99 -219Q-73 -219 -56 -210T-24 -171T3 -88T33 54Q55 176 74 286T116 513Q122 550 138
587T180 652T242 699T325 717Z" />
<glyph unicode="&#xe0;" glyph-name="agrave" horiz-adv-x="408" d="M364 26L363 19Q354 16 337 13T299 5T257 -2T220 -8L251 141Q233 114 212 88T168 39T122 4T76 -10Q54 -10 35 15T15 88Q15 134 33 186T89 283T180 362T305 405L386 451L305 53L364 26ZM262 195L300
375Q260 372 222 347T155 282T108 192T90 89Q90 69 95 57T109 44Q121 44 142 60T187 101T235 157Q249 176 262 194V195ZM551 495L427 682L488 712L560 500L551 495Z" />
<glyph unicode="&#xe1;" glyph-name="aacute" horiz-adv-x="408" d="M364 26L363 19Q354 16 337 13T299 5T257 -2T220 -8L251 141Q233 114 212 88T168 39T122 4T76 -10Q54 -10 35 15T15 88Q15 134 33 186T89 283T180 362T305 405L386 451L305 53L364 26ZM262 195L300
375Q260 372 222 347T155 282T108 192T90 89Q90 69 95 57T109 44Q121 44 142 60T187 101T235 157Q249 176 262 194V195ZM227 495L218 500L348 712L400 670L227 495Z" />
<glyph unicode="&#xe2;" glyph-name="acircumflex" horiz-adv-x="408" d="M364 26L363 19Q354 16 337 13T299 5T257 -2T220 -8L251 141Q233 114 212 88T168 39T122 4T76 -10Q54 -10 35 15T15 88Q15 134 33 186T89 283T180 362T305 405L386 451L305 53L364 26ZM262
195L300 375Q260 372 222 347T155 282T108 192T90 89Q90 69 95 57T109 44Q121 44 142 60T187 101T235 157Q249 176 262 194V195ZM300 706L352 488L343 485L282 598L169 485L160 490L300 706Z" />
<glyph unicode="&#xe3;" glyph-name="atilde" horiz-adv-x="408" d="M364 26L363 19Q354 16 337 13T299 5T257 -2T220 -8L251 141Q233 114 212 88T168 39T122 4T76 -10Q54 -10 35 15T15 88Q15 134 33 186T89 283T180 362T305 405L386 451L305 53L364 26ZM262 195L300
375Q260 372 222 347T155 282T108 192T90 89Q90 69 95 57T109 44Q121 44 142 60T187 101T235 157Q249 176 262 194V195ZM235 611Q243 611 256 607T283 596T311 586T332 581Q338 581 346 586T364 599T382 617T398 637L405 633Q399 615 390 597T370 565T347 541T325
531Q315 531 302 535T274 545T247 555T228 560Q214 560 196 543T160 505L153 509Q160 526 170 544T191 577T214 601T235 611Z" />
<glyph unicode="&#xe4;" glyph-name="adieresis" horiz-adv-x="408" d="M364 26L363 19Q354 16 337 13T299 5T257 -2T220 -8L251 141Q233 114 212 88T168 39T122 4T76 -10Q54 -10 35 15T15 88Q15 134 33 186T89 283T180 362T305 405L386 451L305 53L364 26ZM262
195L300 375Q260 372 222 347T155 282T108 192T90 89Q90 69 95 57T109 44Q121 44 142 60T187 101T235 157Q249 176 262 194V195ZM590 624Q607 624 618 613T630 584Q630 567 619 555T590 543Q573 543 562 555T550 584Q550 601 561 612T590 624ZM435 624Q452 624
463 613T475 584Q475 567 464 555T435 543Q418 543 407 555T395 584Q395 601 406 612T435 624Z" />
<glyph unicode="&#xe5;" glyph-name="aring" horiz-adv-x="408" d="M364 26L363 19Q354 16 337 13T299 5T257 -2T220 -8L251 141Q233 114 212 88T168 39T122 4T76 -10Q54 -10 35 15T15 88Q15 134 33 186T89 283T180 362T305 405L386 451L305 53L364 26ZM262 195L300
375Q260 372 222 347T155 282T108 192T90 89Q90 69 95 57T109 44Q121 44 142 60T187 101T235 157Q249 176 262 194V195ZM464 575Q464 555 477 540T512 524Q533 524 546 539T560 575Q560 595 547 610T512 626Q490 626 477 611T464 575ZM434 575Q434 591 440 605T457
629T482 646T512 652Q544 652 567 630T590 575Q590 541 567 520T512 498Q480 498 457 519T434 575Z" />
<glyph unicode="&#xe6;" glyph-name="ae" horiz-adv-x="547" d="M339 -10Q322 -10 304 -4T272 18T248 56T238 113V123Q221 99 202 75T163 32T121 2T78 -10Q55 -10 36 15T16 88Q16 145 39 203T101 309T193 385T305 415Q331 415 352 409T387 394Q407 406 428 413T472
420Q507 420 527 409T547 379Q547 369 538 352T506 317T442 282T336 257Q325 228 319 194T313 123Q313 78 328 58T366 38Q395 38 428 62T494 125L503 119Q471 56 428 23T339 -10ZM288 386Q256 386 222 362T158 297T110 202T91 88Q91 70 96 57T111 44Q121 44 136
53T169 79T205 118T242 165Q252 224 280 275T346 363Q336 372 322 379T288 386ZM482 373Q482 393 456 393Q430 393 400 363T346 280Q371 285 395 293T438 314T470 340T482 373Z" />
<glyph unicode="&#xe7;" glyph-name="ccedilla" horiz-adv-x="331" d="M247 420Q281 420 304 414T340 403L313 332H309Q295 353 276 370T236 388Q213 388 189 368T144 313T111 233T98 138Q98 86 111 63T143 39Q161 39 180 49T218 73T250 102T273 127L281 122Q270
99 254 76T217 33T171 2Q158 -4 144 -7L97 -80Q117 -88 134 -105T151 -149Q151 -191 107 -224T-8 -281L-12 -274Q4 -265 23 -252T58 -224T86 -193T98 -161Q98 -141 82 -131T52 -115L51 -112Q71 -82 87 -57Q101 -36 112 -18Q115 -13 117 -10Q79 -8 51 26Q23 62 23
125Q23 185 42 238T93 332T165 396T247 420Z" />
<glyph unicode="&#xe8;" glyph-name="egrave" horiz-adv-x="331" d="M123 -10Q106 -10 88 -4T56 18T32 56T22 113Q22 171 42 226T95 325T170 394T256 420Q291 420 311 409T331 379Q331 369 322 352T290 317T226 282T120 257Q109 228 103 194T97 123Q97 78 112
58T150 38Q178 38 212 62T278 125L287 119Q255 59 213 25T123 -10ZM240 393Q214 393 184 363T130 280Q155 285 179 293T222 314T254 340T266 373Q266 393 240 393ZM532 495L408 682L469 712L541 500L532 495Z" />
<glyph unicode="&#xe9;" glyph-name="eacute" horiz-adv-x="331" d="M123 -10Q106 -10 88 -4T56 18T32 56T22 113Q22 171 42 226T95 325T170 394T256 420Q291 420 311 409T331 379Q331 369 322 352T290 317T226 282T120 257Q109 228 103 194T97 123Q97 78 112
58T150 38Q178 38 212 62T278 125L287 119Q255 59 213 25T123 -10ZM240 393Q214 393 184 363T130 280Q155 285 179 293T222 314T254 340T266 373Q266 393 240 393ZM204 495L195 500L325 712L377 670L204 495Z" />
<glyph unicode="&#xea;" glyph-name="ecircumflex" horiz-adv-x="331" d="M123 -10Q106 -10 88 -4T56 18T32 56T22 113Q22 171 42 226T95 325T170 394T256 420Q291 420 311 409T331 379Q331 369 322 352T290 317T226 282T120 257Q109 228 103 194T97 123Q97 78
112 58T150 38Q178 38 212 62T278 125L287 119Q255 59 213 25T123 -10ZM240 393Q214 393 184 363T130 280Q155 285 179 293T222 314T254 340T266 373Q266 393 240 393ZM524 706L576 488L567 485L506 598L393 485L384 490L524 706Z" />
<glyph unicode="&#xeb;" glyph-name="edieresis" horiz-adv-x="331" d="M123 -10Q106 -10 88 -4T56 18T32 56T22 113Q22 171 42 226T95 325T170 394T256 420Q291 420 311 409T331 379Q331 369 322 352T290 317T226 282T120 257Q109 228 103 194T97 123Q97 78 112
58T150 38Q178 38 212 62T278 125L287 119Q255 59 213 25T123 -10ZM240 393Q214 393 184 363T130 280Q155 285 179 293T222 314T254 340T266 373Q266 393 240 393ZM576 624Q593 624 604 613T616 584Q616 567 605 555T576 543Q559 543 548 555T536 584Q536 601 547
612T576 624ZM421 624Q438 624 449 613T461 584Q461 567 450 555T421 543Q404 543 393 555T381 584Q381 601 392 612T421 624Z" />
<glyph unicode="&#xec;" glyph-name="igrave" horiz-adv-x="219" d="M101 348L45 374V381Q53 384 69 389T104 401T145 413T184 423L115 53L175 24V19Q165 16 148 13T111 5T70 -2T33 -8L101 348ZM196 495L72 682L133 712L205 500L196 495Z" />
<glyph unicode="&#xed;" glyph-name="iacute" horiz-adv-x="219" d="M101 348L45 374V381Q53 384 69 389T104 401T145 413T184 423L115 53L175 24V19Q165 16 148 13T111 5T70 -2T33 -8L101 348ZM374 495L365 500L495 712L547 670L374 495Z" />
<glyph unicode="&#xee;" glyph-name="icircumflex" horiz-adv-x="219" d="M101 348L45 374V381Q53 384 69 389T104 401T145 413T184 423L115 53L175 24V19Q165 16 148 13T111 5T70 -2T33 -8L101 348ZM446 706L498 488L489 485L428 598L315 485L306 490L446 706Z" />
<glyph unicode="&#xef;" glyph-name="idieresis" horiz-adv-x="219" d="M101 348L45 374V381Q53 384 69 389T104 401T145 413T184 423L115 53L175 24V19Q165 16 148 13T111 5T70 -2T33 -8L101 348ZM239 624Q256 624 267 613T279 584Q279 567 268 555T239 543Q222
543 211 555T199 584Q199 601 210 612T239 624ZM94 624Q111 624 122 613T134 584Q134 567 123 555T94 543Q77 543 66 555T54 584Q54 601 65 612T94 624Z" />
<glyph unicode="&#xf0;" glyph-name="eth" horiz-adv-x="402" d="M141 719Q168 705 203 679T272 615L376 675L390 650L291 593Q328 545 353 482T379 338Q379 255 359 190T308 81T237 13T157 -10Q125 -10 100 3T58 39T32 90T23 149Q23 207 42 256T93 340T165 396T246
416Q265 416 278 412T299 403Q293 453 280 493T247 568L110 489L96 514L233 593Q210 631 184 659T138 711L141 719ZM303 340Q303 348 303 355T302 370Q293 375 281 380T248 385Q217 385 190 365T143 312T112 234T100 141Q100 85 116 52T161 19Q183 19 208 41T254
105T289 206T303 340Z" />
<glyph unicode="&#xf1;" glyph-name="ntilde" horiz-adv-x="445" d="M29 0L100 348L46 374V381Q53 384 69 389T106 401T148 413T188 423L153 260Q180 294 208 323T264 373T316 407T365 420Q388 420 398 410T408 386Q408 365 389 283T337 53L395 26V19Q386 16 369
13T331 5T290 -2T253 -8Q290 157 310 247T330 345Q330 355 317 355Q297 355 251 320T144 219L98 0H29ZM244 611Q252 611 265 607T292 596T320 586T341 581Q347 581 355 586T373 599T391 617T407 637L414 633Q408 615 399 597T379 565T356 541T334 531Q324 531 311
535T283 545T256 555T237 560Q223 560 205 543T169 505L162 509Q169 526 179 544T200 577T223 601T244 611Z" />
<glyph unicode="&#xf2;" glyph-name="ograve" horiz-adv-x="398" d="M163 -10Q132 -10 107 2T63 35T34 86T23 150Q23 203 41 251T89 337T158 397T239 420Q268 420 293 408T336 375T365 326T376 264Q376 203 357 153T307 66T238 10T163 -10ZM167 19Q190 19 213
38T256 90T287 170T299 270Q299 328 283 359T237 391Q212 391 188 369T144 312T113 233T101 142Q101 19 167 19ZM535 495L411 682L472 712L544 500L535 495Z" />
<glyph unicode="&#xf3;" glyph-name="oacute" horiz-adv-x="398" d="M163 -10Q132 -10 107 2T63 35T34 86T23 150Q23 203 41 251T89 337T158 397T239 420Q268 420 293 408T336 375T365 326T376 264Q376 203 357 153T307 66T238 10T163 -10ZM167 19Q190 19 213
38T256 90T287 170T299 270Q299 328 283 359T237 391Q212 391 188 369T144 312T113 233T101 142Q101 19 167 19ZM204 495L195 500L325 712L377 670L204 495Z" />
<glyph unicode="&#xf4;" glyph-name="ocircumflex" horiz-adv-x="398" d="M163 -10Q132 -10 107 2T63 35T34 86T23 150Q23 203 41 251T89 337T158 397T239 420Q268 420 293 408T336 375T365 326T376 264Q376 203 357 153T307 66T238 10T163 -10ZM167 19Q190 19
213 38T256 90T287 170T299 270Q299 328 283 359T237 391Q212 391 188 369T144 312T113 233T101 142Q101 19 167 19ZM549 706L601 488L592 485L531 598L418 485L409 490L549 706Z" />
<glyph unicode="&#xf5;" glyph-name="otilde" horiz-adv-x="398" d="M163 -10Q132 -10 107 2T63 35T34 86T23 150Q23 203 41 251T89 337T158 397T239 420Q268 420 293 408T336 375T365 326T376 264Q376 203 357 153T307 66T238 10T163 -10ZM167 19Q190 19 213
38T256 90T287 170T299 270Q299 328 283 359T237 391Q212 391 188 369T144 312T113 233T101 142Q101 19 167 19ZM473 611Q481 611 494 607T521 596T549 586T570 581Q576 581 584 586T602 599T620 617T636 637L643 633Q637 615 628 597T608 565T585 541T563 531Q553
531 540 535T512 545T485 555T466 560Q452 560 434 543T398 505L391 509Q398 526 408 544T429 577T452 601T473 611Z" />
<glyph unicode="&#xf6;" glyph-name="odieresis" horiz-adv-x="398" d="M163 -10Q132 -10 107 2T63 35T34 86T23 150Q23 203 41 251T89 337T158 397T239 420Q268 420 293 408T336 375T365 326T376 264Q376 203 357 153T307 66T238 10T163 -10ZM167 19Q190 19 213
38T256 90T287 170T299 270Q299 328 283 359T237 391Q212 391 188 369T144 312T113 233T101 142Q101 19 167 19ZM590 624Q607 624 618 613T630 584Q630 567 619 555T590 543Q573 543 562 555T550 584Q550 601 561 612T590 624ZM435 624Q452 624 463 613T475 584Q475
567 464 555T435 543Q418 543 407 555T395 584Q395 601 406 612T435 624Z" />
<glyph unicode="&#xf7;" glyph-name="divide" horiz-adv-x="413" d="M47 230L54 263H377L370 230H47ZM141 94Q141 111 153 123T183 136Q201 136 213 124T226 94Q226 76 214 64T183 51Q166 51 154 63T141 94ZM199 393Q199 410 211 422T241 434Q259 434 271 422T284
393Q284 375 272 363T241 350Q224 350 212 362T199 393Z" />
<glyph unicode="&#xf8;" glyph-name="oslash" horiz-adv-x="398" d="M15 -50L67 30Q46 52 35 82T23 150Q23 203 41 251T89 337T158 397T239 420Q259 420 276 415T309 399L355 469L379 454L331 380Q351 359 363 329T376 264Q376 203 357 153T307 66T238 10T163
-10Q122 -10 89 12L39 -65L15 -50ZM167 19Q190 19 213 38T256 90T287 170T299 270Q299 299 294 324L116 53Q132 19 167 19ZM101 142Q101 108 105 88L283 359Q266 391 237 391Q212 391 188 369T144 312T113 233T101 142Z" />
<glyph unicode="&#xf9;" glyph-name="ugrave" horiz-adv-x="432" d="M283 176Q259 140 233 107T180 49T127 9T79 -6Q56 -6 45 4T33 26Q33 40 40 67Q48 102 65 172T105 348L50 374V381Q58 384 74 389T111 401T153 413T193 423Q156 258 134 167T112 67Q112 63 114
61T124 58Q135 58 155 73T200 114T249 169T295 228L334 410H404L330 51L387 25V19Q378 17 360 13T322 6T280 -2T244 -8L283 176ZM567 495L443 682L504 712L576 500L567 495Z" />
<glyph unicode="&#xfa;" glyph-name="uacute" horiz-adv-x="432" d="M283 176Q259 140 233 107T180 49T127 9T79 -6Q56 -6 45 4T33 26Q33 40 40 67Q48 102 65 172T105 348L50 374V381Q58 384 74 389T111 401T153 413T193 423Q156 258 134 167T112 67Q112 63 114
61T124 58Q135 58 155 73T200 114T249 169T295 228L334 410H404L330 51L387 25V19Q378 17 360 13T322 6T280 -2T244 -8L283 176ZM242 495L233 500L363 712L415 670L242 495Z" />
<glyph unicode="&#xfb;" glyph-name="ucircumflex" horiz-adv-x="432" d="M283 176Q259 140 233 107T180 49T127 9T79 -6Q56 -6 45 4T33 26Q33 40 40 67Q48 102 65 172T105 348L50 374V381Q58 384 74 389T111 401T153 413T193 423Q156 258 134 167T112 67Q112
63 114 61T124 58Q135 58 155 73T200 114T249 169T295 228L334 410H404L330 51L387 25V19Q378 17 360 13T322 6T280 -2T244 -8L283 176ZM315 706L367 488L358 485L297 598L184 485L175 490L315 706Z" />
<glyph unicode="&#xfc;" glyph-name="udieresis" horiz-adv-x="432" d="M283 176Q259 140 233 107T180 49T127 9T79 -6Q56 -6 45 4T33 26Q33 40 40 67Q48 102 65 172T105 348L50 374V381Q58 384 74 389T111 401T153 413T193 423Q156 258 134 167T112 67Q112 63
114 61T124 58Q135 58 155 73T200 114T249 169T295 228L334 410H404L330 51L387 25V19Q378 17 360 13T322 6T280 -2T244 -8L283 176ZM359 624Q376 624 387 613T399 584Q399 567 388 555T359 543Q342 543 331 555T319 584Q319 601 330 612T359 624ZM204 624Q221
624 232 613T244 584Q244 567 233 555T204 543Q187 543 176 555T164 584Q164 601 175 612T204 624Z" />
<glyph unicode="&#xfd;" glyph-name="yacute" horiz-adv-x="344" d="M274 349Q274 375 250 396V399L330 421Q335 414 340 402T345 375Q345 350 333 320T297 249T236 154T150 28L-56 -271L-136 -260V-254Q-108 -230 -75 -196T-10 -127T50 -58T96 -2Q94 49 92 101T85
202T77 290T70 355L20 382V388Q29 391 41 395T69 404T100 414T130 423Q135 392 139 350T147 261T153 168T155 85Q188 140 211 181T248 254T268 308T274 349ZM185 495L176 500L306 712L358 670L185 495Z" />
<glyph unicode="&#xfe;" glyph-name="thorn" horiz-adv-x="413" d="M39 -219L133 -264L132 -270H-93L-92 -264L-31 -223L146 649L86 678V684Q94 687 111 692T149 703T192 715T232 725Q232 723 228 702T216 645T200 563T180 466T160 363T139 262Q158 292 179 320T223
371T267 406T309 420Q317 420 330 417T357 401T381 366T391 304Q391 255 374 200T326 99T249 21T147 -10Q111 -10 84 6L39 -219ZM283 366Q271 366 254 354T217 321T174 271T127 206Q120 174 115 148T106 101Q102 78 98 60Q98 49 109 35T147 21Q181 21 211 47T264
115T300 205T314 301Q314 324 311 337T302 356T291 364T283 366Z" />
<glyph unicode="&#xff;" glyph-name="ydieresis" horiz-adv-x="344" d="M274 349Q274 375 250 396V399L330 421Q335 414 340 402T345 375Q345 350 333 320T297 249T236 154T150 28L-56 -271L-136 -260V-254Q-108 -230 -75 -196T-10 -127T50 -58T96 -2Q94 49 92
101T85 202T77 290T70 355L20 382V388Q29 391 41 395T69 404T100 414T130 423Q135 392 139 350T147 261T153 168T155 85Q188 140 211 181T248 254T268 308T274 349ZM557 624Q574 624 585 613T597 584Q597 567 586 555T557 543Q540 543 529 555T517 584Q517 601
528 612T557 624ZM402 624Q419 624 430 613T442 584Q442 567 431 555T402 543Q385 543 374 555T362 584Q362 601 373 612T402 624Z" />
<glyph unicode="&#x100;" glyph-name="Amacron" horiz-adv-x="567" d="M128 6L126 0H-36L-34 6L31 50L366 675H375L483 50L527 6L525 0H330L332 6L408 50L367 281H194L72 50L128 6ZM211 312H362L324 526L211 312ZM491 772L483 727H267L275 772H491Z" />
<glyph unicode="&#x101;" glyph-name="amacron" horiz-adv-x="408" d="M364 26L363 19Q354 16 337 13T299 5T257 -2T220 -8L251 141Q233 114 212 88T168 39T122 4T76 -10Q54 -10 35 15T15 88Q15 134 33 186T89 283T180 362T305 405L386 451L305 53L364 26ZM262
195L300 375Q260 372 222 347T155 282T108 192T90 89Q90 69 95 57T109 44Q121 44 142 60T187 101T235 157Q249 176 262 194V195ZM425 579H618L609 534H416L425 579Z" />
<glyph unicode="&#x102;" glyph-name="Abreve" horiz-adv-x="567" d="M128 6L126 0H-36L-34 6L31 50L366 675H375L483 50L527 6L525 0H330L332 6L408 50L367 281H194L72 50L128 6ZM211 312H362L324 526L211 312ZM492 831Q479 778 450 746T375 713Q352 713 335
722T307 748T292 785T290 831L297 832Q302 803 321 785T376 767Q412 767 440 785T485 832L492 831Z" />
<glyph unicode="&#x103;" glyph-name="abreve" horiz-adv-x="408" d="M364 26L363 19Q354 16 337 13T299 5T257 -2T220 -8L251 141Q233 114 212 88T168 39T122 4T76 -10Q54 -10 35 15T15 88Q15 134 33 186T89 283T180 362T305 405L386 451L305 53L364 26ZM262
195L300 375Q260 372 222 347T155 282T108 192T90 89Q90 69 95 57T109 44Q121 44 142 60T187 101T235 157Q249 176 262 194V195ZM367 631Q356 578 329 544T257 509Q234 509 218 519T192 546T180 585T181 631L189 632Q191 605 207 584T258 562Q293 562 319 583T359
632L367 631Z" />
<glyph unicode="&#x104;" glyph-name="Aogonek" horiz-adv-x="567" d="M417 0L368 281H194L72 50L128 6L126 0H-36L-34 6L31 50L366 675H375L483 50L527 6L525 0H441Q419 -23 399 -47T364 -96T340 -143T331 -188Q331 -210 342 -223T375 -237Q396 -237 416 -226T450
-204L455 -208Q450 -217 441 -228T417 -251T384 -269T342 -277Q308 -277 287 -256T265 -203Q265 -175 279 -147T316 -93T366 -43T417 0ZM211 312H362L325 527L211 312Z" />
<glyph unicode="&#x105;" glyph-name="aogonek" horiz-adv-x="408" d="M69 -203Q69 -175 84 -147T121 -93T171 -43T222 0L251 141Q233 114 212 88T168 39T122 4T76 -10Q54 -10 35 15T15 88Q15 134 33 186T89 283T180 362T305 405L386 451L305 53L364 26L363 19Q355
16 341 13T310 7T275 0T240 -5Q197 -51 166 -98T135 -188Q135 -210 146 -223T179 -237Q200 -237 220 -226T254 -204L259 -208Q254 -217 245 -228T221 -251T188 -269T146 -277Q112 -277 91 -256T69 -203ZM109 44Q120 44 138 57T178 91T221 140T262 195L300 375Q260
372 222 347T155 282T108 192T90 89Q90 69 95 57T109 44Z" />
<glyph unicode="&#x106;" glyph-name="Cacute" horiz-adv-x="589" d="M338 -10Q282 -10 232 7T143 60T81 147T58 269Q58 348 87 421T168 550T290 639T442 672Q504 672 546 663T602 649L583 542H577Q570 561 558 578T529 609T489 631T435 639Q373 639 320 610T229
531T168 413T146 269Q146 216 160 171T200 93T261 42T338 23Q374 23 404 33T456 59T494 89T519 115H525L506 17Q495 12 452 1T338 -10ZM334 703L329 712L527 839L555 779L334 703Z" />
<glyph unicode="&#x107;" glyph-name="cacute" horiz-adv-x="331" d="M247 420Q281 420 304 414T340 403L313 332H309Q295 353 276 370T236 388Q213 388 189 368T144 313T111 233T98 138Q98 86 111 63T143 39Q161 39 180 49T218 73T250 102T273 127L281 122Q270
99 254 76T217 33T172 2T120 -10Q80 -10 52 26T23 125Q23 185 42 238T93 332T165 396T247 420ZM204 495L195 500L325 712L377 670L204 495Z" />
<glyph unicode="&#x108;" glyph-name="Ccircumflex" horiz-adv-x="589" d="M338 -10Q282 -10 232 7T143 60T81 147T58 269Q58 348 87 421T168 550T290 639T442 672Q504 672 546 663T602 649L583 542H577Q570 561 558 578T529 609T489 631T435 639Q373 639 320
610T229 531T168 413T146 269Q146 216 160 171T200 93T261 42T338 23Q374 23 404 33T456 59T494 89T519 115H525L506 17Q495 12 452 1T338 -10ZM437 831L535 713L530 707L431 762L301 707L296 714L437 831Z" />
<glyph unicode="&#x109;" glyph-name="ccircumflex" horiz-adv-x="331" d="M247 420Q281 420 304 414T340 403L313 332H309Q295 353 276 370T236 388Q213 388 189 368T144 313T111 233T98 138Q98 86 111 63T143 39Q161 39 180 49T218 73T250 102T273 127L281 122Q270
99 254 76T217 33T172 2T120 -10Q80 -10 52 26T23 125Q23 185 42 238T93 332T165 396T247 420ZM540 706L592 488L583 485L522 598L409 485L400 490L540 706Z" />
<glyph unicode="&#x10a;" glyph-name="Cdotaccent" horiz-adv-x="589" d="M338 -10Q282 -10 232 7T143 60T81 147T58 269Q58 348 87 421T168 550T290 639T442 672Q504 672 546 663T602 649L583 542H577Q570 561 558 578T529 609T489 631T435 639Q373 639 320 610T229
531T168 413T146 269Q146 216 160 171T200 93T261 42T338 23Q374 23 404 33T456 59T494 89T519 115H525L506 17Q495 12 452 1T338 -10ZM430 808Q447 808 459 796T471 767Q471 750 459 738T430 726Q413 726 401 738T389 767Q389 784 401 796T430 808Z" />
<glyph unicode="&#x10b;" glyph-name="cdotaccent" horiz-adv-x="331" d="M247 420Q281 420 304 414T340 403L313 332H309Q295 353 276 370T236 388Q213 388 189 368T144 313T111 233T98 138Q98 86 111 63T143 39Q161 39 180 49T218 73T250 102T273 127L281 122Q270
99 254 76T217 33T172 2T120 -10Q80 -10 52 26T23 125Q23 185 42 238T93 332T165 396T247 420ZM512 629Q529 629 541 617T553 588Q553 571 541 559T512 547Q495 547 483 559T471 588Q471 605 483 617T512 629Z" />
<glyph unicode="&#x10c;" glyph-name="Ccaron" horiz-adv-x="589" d="M338 -10Q282 -10 232 7T143 60T81 147T58 269Q58 348 87 421T168 550T290 639T442 672Q504 672 546 663T602 649L583 542H577Q570 561 558 578T529 609T489 631T435 639Q373 639 320 610T229
531T168 413T146 269Q146 216 160 171T200 93T261 42T338 23Q374 23 404 33T456 59T494 89T519 115H525L506 17Q495 12 452 1T338 -10ZM424 702L326 820L331 826L430 771L560 826L565 819L424 702Z" />
<glyph unicode="&#x10d;" glyph-name="ccaron" horiz-adv-x="331" d="M247 420Q281 420 304 414T340 403L313 332H309Q295 353 276 370T236 388Q213 388 189 368T144 313T111 233T98 138Q98 86 111 63T143 39Q161 39 180 49T218 73T250 102T273 127L281 122Q270
99 254 76T217 33T172 2T120 -10Q80 -10 52 26T23 125Q23 185 42 238T93 332T165 396T247 420ZM485 484L433 702L442 705L503 592L616 705L625 700L485 484Z" />
<glyph unicode="&#x10e;" glyph-name="Dcaron" horiz-adv-x="637" d="M338 662Q394 662 445 644T536 591T598 504T622 382Q622 313 598 245T527 122T416 34T269 0H-3L-2 6L70 50L163 612L107 656L108 662H338ZM246 631L150 49Q166 43 194 37T269 31Q323 31 371
57T455 129T512 238T534 375Q534 441 515 489T466 569T395 616T313 631H246ZM377 702L279 820L284 826L383 771L513 826L518 819L377 702Z" />
<glyph unicode="&#x10f;" glyph-name="dcaron" horiz-adv-x="431" d="M21 106Q21 164 42 220T100 320T191 391T309 418H330L378 649L317 678V684Q326 687 343 692T381 703T424 715T464 725L326 53L386 24L385 19Q376 16 359 13T321 5T280 -2T243 -8L274 142Q227
73 184 32T102 -10Q88 -10 74 -3T48 18T29 54T21 106ZM321 371Q317 376 306 380T278 385Q242 385 209 362T152 301T113 213T98 111Q98 78 107 60T127 42Q138 42 156 54T195 88T239 136T285 195L321 371ZM469 509L530 715H596L480 509H469Z" />
<glyph unicode="&#x110;" glyph-name="Dcroat" horiz-adv-x="637" d="M338 662Q394 662 445 644T536 591T598 504T622 382Q622 313 598 245T527 122T416 34T269 0H-3L-2 6L70 50L115 321H40L46 353H120L163 612L107 656L108 662H338ZM195 321L150 49Q166 43 194
37T269 31Q323 31 371 57T455 129T512 238T534 375Q534 441 515 489T466 569T395 616T313 631H246L200 353H382L376 321H195Z" />
<glyph unicode="&#x111;" glyph-name="dcroat" horiz-adv-x="431" d="M497 536H215L222 565H504L497 536ZM21 106Q21 164 42 220T100 320T191 391T309 418H330L378 649L317 678V684Q326 687 343 692T381 703T424 715T464 725L326 53L386 24L385 19Q376 16 359
13T321 5T280 -2T243 -8L274 142Q227 73 184 32T102 -10Q88 -10 74 -3T48 18T29 54T21 106ZM321 371Q317 376 306 380T278 385Q242 385 209 362T152 301T113 213T98 111Q98 78 107 60T127 42Q138 42 156 54T195 88T239 136T285 195L321 371Z" />
<glyph unicode="&#x112;" glyph-name="Emacron" horiz-adv-x="487" d="M-3 0L-2 6L70 50L163 612L107 656L108 662H494L474 545H467L422 630H246L203 369H384L437 438H444L416 269H409L379 337H197L147 33H339L422 138H429L407 0H-3ZM444 772L436 727H220L228 772H444Z" />
<glyph unicode="&#x113;" glyph-name="emacron" horiz-adv-x="331" d="M123 -10Q106 -10 88 -4T56 18T32 56T22 113Q22 171 42 226T95 325T170 394T256 420Q291 420 311 409T331 379Q331 369 322 352T290 317T226 282T120 257Q109 228 103 194T97 123Q97 78 112
58T150 38Q178 38 212 62T278 125L287 119Q255 59 213 25T123 -10ZM240 393Q214 393 184 363T130 280Q155 285 179 293T222 314T254 340T266 373Q266 393 240 393ZM407 579H600L591 534H398L407 579Z" />
<glyph unicode="&#x114;" glyph-name="Ebreve" horiz-adv-x="487" d="M-3 0L-2 6L70 50L163 612L107 656L108 662H494L474 545H467L422 630H246L203 369H384L437 438H444L416 269H409L379 337H197L147 33H339L422 138H429L407 0H-3ZM447 831Q434 778 405 746T330
713Q307 713 290 722T262 748T247 785T245 831L252 832Q257 803 276 785T331 767Q367 767 395 785T440 832L447 831Z" />
<glyph unicode="&#x115;" glyph-name="ebreve" horiz-adv-x="331" d="M123 -10Q106 -10 88 -4T56 18T32 56T22 113Q22 171 42 226T95 325T170 394T256 420Q291 420 311 409T331 379Q331 369 322 352T290 317T226 282T120 257Q109 228 103 194T97 123Q97 78 112
58T150 38Q178 38 212 62T278 125L287 119Q255 59 213 25T123 -10ZM240 393Q214 393 184 363T130 280Q155 285 179 293T222 314T254 340T266 373Q266 393 240 393ZM596 631Q585 578 558 544T486 509Q463 509 447 519T421 546T409 585T410 631L418 632Q420 605 436
584T487 562Q522 562 548 583T588 632L596 631Z" />
<glyph unicode="&#x116;" glyph-name="Edotaccent" horiz-adv-x="487" d="M-3 0L-2 6L70 50L163 612L107 656L108 662H494L474 545H467L422 630H246L203 369H384L437 438H444L416 269H409L379 337H197L147 33H339L422 138H429L407 0H-3ZM335 808Q352 808 364 796T376
767Q376 750 364 738T335 726Q318 726 306 738T294 767Q294 784 306 796T335 808Z" />
<glyph unicode="&#x117;" glyph-name="edotaccent" horiz-adv-x="331" d="M123 -10Q106 -10 88 -4T56 18T32 56T22 113Q22 171 42 226T95 325T170 394T256 420Q291 420 311 409T331 379Q331 369 322 352T290 317T226 282T120 257Q109 228 103 194T97 123Q97 78
112 58T150 38Q178 38 212 62T278 125L287 119Q255 59 213 25T123 -10ZM240 393Q214 393 184 363T130 280Q155 285 179 293T222 314T254 340T266 373Q266 393 240 393ZM502 629Q519 629 531 617T543 588Q543 571 531 559T502 547Q485 547 473 559T461 588Q461 605
473 617T502 629Z" />
<glyph unicode="&#x118;" glyph-name="Eogonek" horiz-adv-x="487" d="M-3 0L-2 6L70 50L163 612L107 656L108 662H494L474 545H467L422 630H246L203 369H384L437 438H444L416 269H409L379 337H197L147 33H339L422 138H429L407 0H-3ZM239 -277Q205 -277 184 -256T162
-203Q162 -175 176 -147T213 -93T263 -43T314 0H338Q316 -23 296 -47T261 -96T237 -143T228 -188Q228 -210 239 -223T272 -237Q293 -237 313 -226T347 -204L352 -208Q347 -217 338 -228T314 -251T281 -269T239 -277Z" />
<glyph unicode="&#x119;" glyph-name="eogonek" horiz-adv-x="331" d="M9 -203Q9 -176 22 -149T57 -97T104 -48T154 -6Q146 -8 139 -9T123 -10Q106 -10 88 -4T56 18T32 56T22 113Q22 171 42 226T95 325T170 394T256 420Q291 420 311 409T331 379Q331 369 322 352T290
317T226 282T120 257Q109 228 103 194T97 123Q97 78 112 58T150 38Q178 38 212 62T278 125L287 119Q276 98 265 82T242 52T218 27T192 3Q168 -19 147 -43T110 -93T85 -143T75 -188Q75 -210 86 -223T119 -237Q140 -237 160 -226T194 -204L199 -208Q194 -217 185
-228T161 -251T128 -269T86 -277Q52 -277 31 -256T9 -203ZM240 393Q214 393 184 363T130 280Q155 285 179 293T222 314T254 340T266 373Q266 393 240 393Z" />
<glyph unicode="&#x11a;" glyph-name="Ecaron" horiz-adv-x="487" d="M-3 0L-2 6L70 50L163 612L107 656L108 662H494L474 545H467L422 630H246L203 369H384L437 438H444L416 269H409L379 337H197L147 33H339L422 138H429L407 0H-3ZM324 702L226 820L231 826L330
771L460 826L465 819L324 702Z" />
<glyph unicode="&#x11b;" glyph-name="ecaron" horiz-adv-x="331" d="M123 -10Q106 -10 88 -4T56 18T32 56T22 113Q22 171 42 226T95 325T170 394T256 420Q291 420 311 409T331 379Q331 369 322 352T290 317T226 282T120 257Q109 228 103 194T97 123Q97 78 112
58T150 38Q178 38 212 62T278 125L287 119Q255 59 213 25T123 -10ZM240 393Q214 393 184 363T130 280Q155 285 179 293T222 314T254 340T266 373Q266 393 240 393ZM485 484L433 702L442 705L503 592L616 705L625 700L485 484Z" />
<glyph unicode="&#x11c;" glyph-name="Gcircumflex" horiz-adv-x="638" d="M525 17Q516 15 498 11T457 2T407 -6T357 -10Q291 -10 236 9T142 65T80 151T58 265Q58 344 86 417T166 547T286 638T437 672Q493 672 540 664T612 647L593 543H587Q564 586 528 612T433
639Q370 639 318 609T227 527T168 408T146 267Q146 210 162 165T206 88T272 40T357 23Q389 23 412 30T447 43L489 293L420 338L421 344H631L630 338L569 293L525 17V17ZM451 831L549 713L544 707L445 762L315 707L310 714L451 831Z" />
<glyph unicode="&#x11d;" glyph-name="gcircumflex" horiz-adv-x="366" d="M43 239Q43 277 57 310T95 367T148 406T208 420Q230 420 252 410H396L385 374H296Q317 345 317 311Q317 267 302 233T262 176T210 141T157 128Q149 128 145 129Q119 108 112 97T105 79Q105
70 113 61T150 34Q186 13 214 -1T267 -30Q301 -49 322 -63T354 -90T369 -111T373 -130Q373 -161 352 -185T297 -227T224 -254T148 -263Q100 -263 60 -255T-11 -234T-57 -204T-74 -166Q-74 -158 -66 -144T-38 -112T17 -72T109 -25Q76 -6 59 12T41 52Q41 66 57 87T119
134Q87 145 65 173T43 239ZM233 -90Q207 -77 183 -65T135 -40Q72 -69 37 -98T1 -151Q1 -169 14 -184T49 -209T101 -224T164 -230Q201 -230 228 -222T273 -202T300 -178T309 -157Q309 -152 307 -147T298 -133T275 -115T233 -90ZM205 394Q188 394 172 381T142 347T122
297T114 238Q114 213 119 197T130 171T145 158T159 154Q173 154 188 166T216 201T237 251T246 312Q246 337 242 353T232 378T219 390T205 394ZM518 706L570 488L561 485L500 598L387 485L378 490L518 706Z" />
<glyph unicode="&#x11e;" glyph-name="Gbreve" horiz-adv-x="638" d="M525 17Q516 15 498 11T457 2T407 -6T357 -10Q291 -10 236 9T142 65T80 151T58 265Q58 344 86 417T166 547T286 638T437 672Q493 672 540 664T612 647L593 543H587Q564 586 528 612T433 639Q370
639 318 609T227 527T168 408T146 267Q146 210 162 165T206 88T272 40T357 23Q389 23 412 30T447 43L489 293L420 338L421 344H631L630 338L569 293L525 17V17ZM548 831Q535 778 506 746T431 713Q408 713 391 722T363 748T348 785T346 831L353 832Q358 803 377
785T432 767Q468 767 496 785T541 832L548 831Z" />
<glyph unicode="&#x11f;" glyph-name="gbreve" horiz-adv-x="366" d="M43 239Q43 277 57 310T95 367T148 406T208 420Q230 420 252 410H396L385 374H296Q317 345 317 311Q317 267 302 233T262 176T210 141T157 128Q149 128 145 129Q119 108 112 97T105 79Q105
70 113 61T150 34Q186 13 214 -1T267 -30Q301 -49 322 -63T354 -90T369 -111T373 -130Q373 -161 352 -185T297 -227T224 -254T148 -263Q100 -263 60 -255T-11 -234T-57 -204T-74 -166Q-74 -158 -66 -144T-38 -112T17 -72T109 -25Q76 -6 59 12T41 52Q41 66 57 87T119
134Q87 145 65 173T43 239ZM233 -90Q207 -77 183 -65T135 -40Q72 -69 37 -98T1 -151Q1 -169 14 -184T49 -209T101 -224T164 -230Q201 -230 228 -222T273 -202T300 -178T309 -157Q309 -152 307 -147T298 -133T275 -115T233 -90ZM205 394Q188 394 172 381T142 347T122
297T114 238Q114 213 119 197T130 171T145 158T159 154Q173 154 188 166T216 201T237 251T246 312Q246 337 242 353T232 378T219 390T205 394ZM584 631Q573 578 546 544T474 509Q451 509 435 519T409 546T397 585T398 631L406 632Q408 605 424 584T475 562Q510
562 536 583T576 632L584 631Z" />
<glyph unicode="&#x120;" glyph-name="Gdotaccent" horiz-adv-x="638" d="M525 17Q516 15 498 11T457 2T407 -6T357 -10Q291 -10 236 9T142 65T80 151T58 265Q58 344 86 417T166 547T286 638T437 672Q493 672 540 664T612 647L593 543H587Q564 586 528 612T433
639Q370 639 318 609T227 527T168 408T146 267Q146 210 162 165T206 88T272 40T357 23Q389 23 412 30T447 43L489 293L420 338L421 344H631L630 338L569 293L525 17V17ZM433 808Q450 808 462 796T474 767Q474 750 462 738T433 726Q416 726 404 738T392 767Q392
784 404 796T433 808Z" />
<glyph unicode="&#x121;" glyph-name="gdotaccent" horiz-adv-x="366" d="M43 239Q43 277 57 310T95 367T148 406T208 420Q230 420 252 410H396L385 374H296Q317 345 317 311Q317 267 302 233T262 176T210 141T157 128Q149 128 145 129Q119 108 112 97T105 79Q105
70 113 61T150 34Q186 13 214 -1T267 -30Q301 -49 322 -63T354 -90T369 -111T373 -130Q373 -161 352 -185T297 -227T224 -254T148 -263Q100 -263 60 -255T-11 -234T-57 -204T-74 -166Q-74 -158 -66 -144T-38 -112T17 -72T109 -25Q76 -6 59 12T41 52Q41 66 57 87T119
134Q87 145 65 173T43 239ZM233 -90Q207 -77 183 -65T135 -40Q72 -69 37 -98T1 -151Q1 -169 14 -184T49 -209T101 -224T164 -230Q201 -230 228 -222T273 -202T300 -178T309 -157Q309 -152 307 -147T298 -133T275 -115T233 -90ZM205 394Q188 394 172 381T142 347T122
297T114 238Q114 213 119 197T130 171T145 158T159 154Q173 154 188 166T216 201T237 251T246 312Q246 337 242 353T232 378T219 390T205 394ZM489 629Q506 629 518 617T530 588Q530 571 518 559T489 547Q472 547 460 559T448 588Q448 605 460 617T489 629Z" />
<glyph unicode="&#x122;" glyph-name="Gcommaaccent" horiz-adv-x="638" d="M525 17Q516 15 498 11T457 2T407 -6T357 -10Q291 -10 236 9T142 65T80 151T58 265Q58 344 86 417T166 547T286 638T437 672Q493 672 540 664T612 647L593 543H587Q564 586 528 612T433
639Q370 639 318 609T227 527T168 408T146 267Q146 210 162 165T206 88T272 40T357 23Q389 23 412 30T447 43L489 293L420 338L421 344H631L630 338L569 293L525 17V17ZM328 -126Q328 -150 318 -173T292 -218T255 -258T213 -290L205 -285Q217 -270 229 -253T253
-219T273 -184T288 -153Q273 -155 259 -146T245 -119Q245 -101 256 -90T284 -78Q304 -78 316 -91T328 -126Z" />
<glyph unicode="&#x123;" glyph-name="gcommaaccent" horiz-adv-x="366" d="M43 239Q43 277 57 310T95 367T148 406T208 420Q230 420 252 410H396L385 374H296Q317 345 317 311Q317 267 302 233T262 176T210 141T157 128Q149 128 145 129Q119 108 112 97T105 79Q105
70 113 61T150 34Q186 13 214 -1T267 -30Q301 -49 322 -63T354 -90T369 -111T373 -130Q373 -161 352 -185T297 -227T224 -254T148 -263Q100 -263 60 -255T-11 -234T-57 -204T-74 -166Q-74 -158 -66 -144T-38 -112T17 -72T109 -25Q76 -6 59 12T41 52Q41 66 57 87T119
134Q87 145 65 173T43 239ZM233 -90Q207 -77 183 -65T135 -40Q72 -69 37 -98T1 -151Q1 -169 14 -184T49 -209T101 -224T164 -230Q201 -230 228 -222T273 -202T300 -178T309 -157Q309 -152 307 -147T298 -133T275 -115T233 -90ZM205 394Q188 394 172 381T142 347T122
297T114 238Q114 213 119 197T130 171T145 158T159 154Q173 154 188 166T216 201T237 251T246 312Q246 337 242 353T232 378T219 390T205 394ZM428 548Q428 572 438 595T464 640T501 680T543 712L551 707Q539 692 527 675T503 641T482 606T468 575Q483 577 497
568T511 541Q511 523 500 512T472 500Q452 500 440 513T428 548Z" />
<glyph unicode="&#x124;" glyph-name="Hcircumflex" horiz-adv-x="674" d="M200 354H520L563 612L507 656L508 662H715L714 656L643 612L550 50L607 6L606 0H397L398 6L470 50L515 322H195L150 50L207 6L206 0H-3L-2 6L70 50L163 612L107 656L108 662H315L314
656L243 612L200 354ZM436 831L534 713L529 707L430 762L300 707L295 714L436 831Z" />
<glyph unicode="&#x125;" glyph-name="hcircumflex" horiz-adv-x="435" d="M95 678V684Q103 687 120 692T159 703T202 715T243 725L144 261Q171 295 199 324T254 374T306 408T355 420Q378 420 388 410T398 386Q398 365 379 283T327 53L385 25V19Q376 16 359 13T321
5T280 -2T243 -8Q280 157 300 247T320 345Q320 355 307 355Q287 355 241 320T135 219L88 0H19L156 649L95 678ZM346 869L444 751L439 745L340 800L210 745L205 752L346 869Z" />
<glyph unicode="&#x126;" glyph-name="Hbar" horiz-adv-x="674" d="M63 472L69 504H701L695 472H63ZM200 354H520L563 612L507 656L508 662H715L714 656L643 612L550 50L607 6L606 0H397L398 6L470 50L515 322H195L150 50L207 6L206 0H-3L-2 6L70 50L163 612L107
656L108 662H315L314 656L243 612L200 354Z" />
<glyph unicode="&#x127;" glyph-name="hbar" horiz-adv-x="435" d="M58 536L65 565H339L332 536H58ZM95 678V684Q103 687 120 692T159 703T202 715T243 725L144 261Q171 295 199 324T254 374T306 408T355 420Q378 420 388 410T398 386Q398 365 379 283T327 53L385
25V19Q376 16 359 13T321 5T280 -2T243 -8Q280 157 300 247T320 345Q320 355 307 355Q287 355 241 320T135 219L88 0H19L156 649L95 678Z" />
<glyph unicode="&#x128;" glyph-name="Itilde" horiz-adv-x="274" d="M-3 0L-2 6L70 50L163 612L107 656L108 662H315L314 656L243 612L150 50L207 6L206 0H-3ZM434 806Q442 806 457 803T490 795T524 787T549 783Q556 783 565 788T583 800T601 816T615 832L622
829Q616 814 607 797T588 766T565 741T542 731Q531 731 515 734T481 742T449 750T427 754Q420 754 411 749T393 735T374 718T359 702L352 705Q358 719 367 736T387 769T411 795T434 806Z" />
<glyph unicode="&#x129;" glyph-name="itilde" horiz-adv-x="219" d="M101 348L45 374V381Q53 384 69 389T104 401T145 413T184 423L115 53L175 24V19Q165 16 148 13T111 5T70 -2T33 -8L101 348ZM379 611Q387 611 400 607T427 596T455 586T476 581Q482 581 490
586T508 599T526 617T542 637L549 633Q543 615 534 597T514 565T491 541T469 531Q459 531 446 535T418 545T391 555T372 560Q358 560 340 543T304 505L297 509Q304 526 314 544T335 577T358 601T379 611Z" />
<glyph unicode="&#x12a;" glyph-name="Imacron" horiz-adv-x="274" d="M-3 0L-2 6L70 50L163 612L107 656L108 662H315L314 656L243 612L150 50L207 6L206 0H-3ZM590 772L582 727H366L374 772H590Z" />
<glyph unicode="&#x12b;" glyph-name="imacron" horiz-adv-x="219" d="M101 348L45 374V381Q53 384 69 389T104 401T145 413T184 423L115 53L175 24V19Q165 16 148 13T111 5T70 -2T33 -8L101 348ZM329 579H522L513 534H320L329 579Z" />
<glyph unicode="&#x12c;" glyph-name="Ibreve" horiz-adv-x="274" d="M-3 0L-2 6L70 50L163 612L107 656L108 662H315L314 656L243 612L150 50L207 6L206 0H-3ZM592 831Q579 778 550 746T475 713Q452 713 435 722T407 748T392 785T390 831L397 832Q402 803 421
785T476 767Q512 767 540 785T585 832L592 831Z" />
<glyph unicode="&#x12d;" glyph-name="ibreve" horiz-adv-x="219" d="M101 348L45 374V381Q53 384 69 389T104 401T145 413T184 423L115 53L175 24V19Q165 16 148 13T111 5T70 -2T33 -8L101 348ZM528 631Q517 578 490 544T418 509Q395 509 379 519T353 546T341
585T342 631L350 632Q352 605 368 584T419 562Q454 562 480 583T520 632L528 631Z" />
<glyph unicode="&#x12e;" glyph-name="Iogonek" horiz-adv-x="274" d="M83 -277Q49 -277 28 -256T6 -201Q6 -173 18 -146T47 -92T85 -43T122 0H145Q136 -13 124 -33T100 -79T80 -131T72 -183Q72 -209 83 -223T116 -237Q137 -237 157 -226T191 -204L196 -208Q191
-216 182 -227T159 -250T126 -269T83 -277ZM-3 0L-2 6L70 50L163 612L107 656L108 662H315L314 656L243 612L150 50L207 6L206 0H-3Z" />
<glyph unicode="&#x12f;" glyph-name="iogonek" horiz-adv-x="219" d="M173 627Q190 627 202 615T215 585Q215 568 203 556T173 543Q156 543 144 555T131 585Q131 602 143 614T173 627ZM-31 -277Q-65 -277 -86 -256T-108 -203Q-108 -175 -95 -147T-60 -93T-14
-44T34 0L101 348L45 374V381Q53 384 69 389T104 401T145 413T184 423L115 53L175 24V19Q167 17 153 14T123 8T88 1T53 -5Q12 -51 -15 -99T-42 -188Q-42 -210 -31 -223T2 -237Q23 -237 43 -226T77 -204L82 -208Q77 -217 68 -228T44 -251T11 -269T-31 -277Z" />
<glyph unicode="&#x130;" glyph-name="Idotaccent" horiz-adv-x="274" d="M-3 0L-2 6L70 50L163 612L107 656L108 662H315L314 656L243 612L150 50L207 6L206 0H-3ZM481 808Q498 808 510 796T522 767Q522 750 510 738T481 726Q464 726 452 738T440 767Q440 784
452 796T481 808Z" />
<glyph unicode="&#x131;" glyph-name="dotlessi" horiz-adv-x="219" d="M101 348L45 374V381Q53 384 69 389T104 401T145 413T184 423L115 53L175 24V19Q165 16 148 13T111 5T70 -2T33 -8L101 348Z" />
<glyph unicode="&#x132;" glyph-name="IJ" horiz-adv-x="544" d="M-3 0L-2 6L70 50L163 612L107 656L108 662H315L314 656L243 612L150 50L207 6L206 0H-3ZM430 96Q417 16 366 -66T231 -221L223 -215Q241 -188 259 -156T295 -82T328 12T355 131L435 612L378 656L379
662H587L586 656L515 612L430 96Z" />
<glyph unicode="&#x133;" glyph-name="ij" horiz-adv-x="427" d="M101 348L45 374V381Q53 384 69 389T104 401T145 413T184 423L115 53L175 24V19Q165 16 148 13T111 5T70 -2T33 -8L101 348ZM173 627Q190 627 202 615T215 585Q215 568 203 556T173 543Q156 543
144 555T131 585Q131 602 143 614T173 627ZM326 22Q320 -12 304 -48T265 -120T217 -189T164 -250L156 -246Q163 -233 176 -208T204 -145T234 -57T262 57L318 348L262 374V381Q270 384 285 389T320 401T361 413T401 423L326 22ZM390 627Q407 627 419 615T432 585Q432
568 420 556T390 543Q373 543 361 555T348 585Q348 602 360 614T390 627Z" />
<glyph unicode="&#x134;" glyph-name="Jcircumflex" horiz-adv-x="270" d="M156 96Q143 16 92 -66T-43 -221L-51 -215Q-33 -188 -15 -156T21 -82T54 12T81 131L161 612L104 656L105 662H313L312 656L241 612L156 96ZM489 831L587 713L582 707L483 762L353 707L348
714L489 831Z" />
<glyph unicode="&#x135;" glyph-name="jcircumflex" horiz-adv-x="208" d="M107 22Q101 -12 85 -48T46 -120T-2 -189T-55 -250L-63 -246Q-56 -233 -43 -208T-15 -145T15 -57T43 57L99 348L43 374V381Q51 384 66 389T101 401T142 413T182 423L107 22ZM442 706L494
488L485 485L424 598L311 485L302 490L442 706Z" />
<glyph unicode="&#x136;" glyph-name="Kcommaaccent" horiz-adv-x="573" d="M-3 0L-2 6L70 50L163 612L107 657L108 662H315L314 657L243 612L150 50L206 6L205 0H-3ZM318 0L319 6L390 50L241 335H207L476 612L420 656L421 662H607L606 656L528 617L302 388L477
50L538 6L537 0H318ZM303 -126Q303 -150 293 -173T267 -218T230 -258T188 -290L180 -285Q192 -270 204 -253T228 -219T248 -184T263 -153Q248 -155 234 -146T220 -119Q220 -101 231 -90T259 -78Q279 -78 291 -91T303 -126Z" />
<glyph unicode="&#x137;" glyph-name="kcommaaccent" horiz-adv-x="379" d="M152 650L90 678V684Q99 687 117 692T156 704T198 715T237 725L90 0H20L152 650ZM148 202Q191 241 217 268T256 313T274 343T278 362Q278 373 273 380T264 391V396L343 422Q346 418 351
407T356 383Q356 368 348 353T322 319T276 277T209 223Q250 153 276 112T318 48T343 14T359 -6L357 -11Q331 -10 314 -8T284 1T259 21T233 56T198 113T147 198L148 202ZM205 -126Q205 -150 195 -173T169 -218T132 -258T90 -290L82 -285Q94 -270 106 -253T130 -219T150
-184T165 -153Q150 -155 136 -146T122 -119Q122 -101 133 -90T161 -78Q181 -78 193 -91T205 -126Z" />
<glyph unicode="&#x139;" glyph-name="Lacute" horiz-adv-x="487" d="M147 33H337L441 160H447L420 0H-3L-2 6L70 50L163 612L107 656L108 662H315L314 656L243 612L147 33ZM393 703L388 712L586 839L614 779L393 703Z" />
<glyph unicode="&#x13a;" glyph-name="lacute" horiz-adv-x="215" d="M156 649L93 678V684Q101 687 118 692T157 703T200 715T242 725L106 53L167 24L166 19Q157 16 140 13T102 5T60 -2T23 -8L156 649ZM356 724L351 733L549 860L577 800L356 724Z" />
<glyph unicode="&#x13b;" glyph-name="Lcommaaccent" horiz-adv-x="487" d="M147 33H337L441 160H447L420 0H-3L-2 6L70 50L163 612L107 656L108 662H315L314 656L243 612L147 33ZM261 -126Q261 -150 251 -173T225 -218T188 -258T146 -290L138 -285Q150 -270 162
-253T186 -219T206 -184T221 -153Q206 -155 192 -146T178 -119Q178 -101 189 -90T217 -78Q237 -78 249 -91T261 -126Z" />
<glyph unicode="&#x13c;" glyph-name="lcommaaccent" horiz-adv-x="215" d="M156 649L93 678V684Q101 687 118 692T157 703T200 715T242 725L106 53L167 24L166 19Q157 16 140 13T102 5T60 -2T23 -8L156 649ZM340 -126Q340 -150 330 -173T304 -218T267 -258T225
-290L217 -285Q229 -270 241 -253T265 -219T285 -184T300 -153Q285 -155 271 -146T257 -119Q257 -101 268 -90T296 -78Q316 -78 328 -91T340 -126Z" />
<glyph unicode="&#x13d;" glyph-name="Lcaron" horiz-adv-x="487" d="M147 33H337L441 160H447L420 0H-3L-2 6L70 50L163 612L107 656L108 662H315L314 656L243 612L147 33ZM325 509L386 715H452L336 509H325Z" />
<glyph unicode="&#x13e;" glyph-name="lcaron" horiz-adv-x="215" d="M156 649L93 678V684Q101 687 118 692T157 703T200 715T242 725L106 53L167 24L166 19Q157 16 140 13T102 5T60 -2T23 -8L156 649ZM247 509L308 715H374L258 509H247Z" />
<glyph unicode="&#x13f;" glyph-name="Ldot" horiz-adv-x="487" d="M439 401Q459 401 473 388T487 353Q487 333 473 319T439 305Q418 305 405 319T391 353Q391 374 404 387T439 401ZM147 33H337L441 160H447L420 0H-3L-2 6L70 50L163 612L107 656L108 662H315L314
656L243 612L147 33Z" />
<glyph unicode="&#x140;" glyph-name="ldot" horiz-adv-x="317" d="M290 392Q310 392 324 379T338 344Q338 324 324 310T290 296Q269 296 256 310T242 344Q242 365 255 378T290 392ZM156 649L93 678V684Q101 687 118 692T157 703T200 715T242 725L106 53L167 24L166
19Q157 16 140 13T102 5T60 -2T23 -8L156 649Z" />
<glyph unicode="&#x141;" glyph-name="Lslash" horiz-adv-x="487" d="M147 33H337L441 160H447L420 0H-3L-2 6L70 50L98 223L15 176L22 214L105 261L163 612L107 656L108 662H315L314 656L243 612L193 311L399 428L392 388L186 272L147 33Z" />
<glyph unicode="&#x142;" glyph-name="lslash" horiz-adv-x="224" d="M161 649L98 678V684Q106 687 123 692L162 703Q183 709 205 715T247 725L176 376L251 421L243 379L168 334L111 53L172 24L171 19Q162 16 145 13T107 5T65 -2T28 -8L87 287L7 239L15 279L95
327L161 649Z" />
<glyph unicode="&#x143;" glyph-name="Nacute" horiz-adv-x="658" d="M505 0L189 528L111 55L174 6L173 0H-13L-11 6L70 55L156 579Q141 602 127 621T102 657V662H201L513 132L591 607L527 657L528 662H713L712 657L632 607L533 0H505ZM317 703L312 712L510 839L538
779L317 703Z" />
<glyph unicode="&#x144;" glyph-name="nacute" horiz-adv-x="445" d="M29 0L100 348L46 374V381Q53 384 69 389T106 401T148 413T188 423L153 260Q180 294 208 323T264 373T316 407T365 420Q388 420 398 410T408 386Q408 365 389 283T337 53L395 26V19Q386 16
369 13T331 5T290 -2T253 -8Q290 157 310 247T330 345Q330 355 317 355Q297 355 251 320T144 219L98 0H29ZM244 495L235 500L365 712L417 670L244 495Z" />
<glyph unicode="&#x145;" glyph-name="Ncommaaccent" horiz-adv-x="658" d="M505 0L189 528L111 55L174 6L173 0H-13L-11 6L70 55L156 579Q141 602 127 621T102 657V662H201L513 132L591 607L527 657L528 662H713L712 657L632 607L533 0H505ZM324 -126Q324 -150
314 -173T288 -218T251 -258T209 -290L201 -285Q213 -270 225 -253T249 -219T269 -184T284 -153Q269 -155 255 -146T241 -119Q241 -101 252 -90T280 -78Q300 -78 312 -91T324 -126Z" />
<glyph unicode="&#x146;" glyph-name="ncommaaccent" horiz-adv-x="445" d="M29 0L100 348L46 374V381Q53 384 69 389T106 401T148 413T188 423L153 260Q180 294 208 323T264 373T316 407T365 420Q388 420 398 410T408 386Q408 365 389 283T337 53L395 26V19Q386
16 369 13T331 5T290 -2T253 -8Q290 157 310 247T330 345Q330 355 317 355Q297 355 251 320T144 219L98 0H29ZM203 -126Q203 -150 193 -173T167 -218T130 -258T88 -290L80 -285Q92 -270 104 -253T128 -219T148 -184T163 -153Q148 -155 134 -146T120 -119Q120 -101
131 -90T159 -78Q179 -78 191 -91T203 -126Z" />
<glyph unicode="&#x147;" glyph-name="Ncaron" horiz-adv-x="658" d="M505 0L189 528L111 55L174 6L173 0H-13L-11 6L70 55L156 579Q141 602 127 621T102 657V662H201L513 132L591 607L527 657L528 662H713L712 657L632 607L533 0H505ZM402 702L304 820L309 826L408
771L538 826L543 819L402 702Z" />
<glyph unicode="&#x148;" glyph-name="ncaron" horiz-adv-x="445" d="M29 0L100 348L46 374V381Q53 384 69 389T106 401T148 413T188 423L153 260Q180 294 208 323T264 373T316 407T365 420Q388 420 398 410T408 386Q408 365 389 283T337 53L395 26V19Q386 16
369 13T331 5T290 -2T253 -8Q290 157 310 247T330 345Q330 355 317 355Q297 355 251 320T144 219L98 0H29ZM268 484L216 702L225 705L286 592L399 705L408 700L268 484Z" />
<glyph unicode="&#x149;" glyph-name="napostrophe" horiz-adv-x="469" d="M53 0L124 348L70 374V381Q77 384 93 389T130 401T172 413T212 423L177 260Q204 294 232 323T288 373T340 407T389 420Q412 420 422 410T432 386Q432 365 413 283T361 53L419 26V19Q410
16 393 13T355 5T314 -2T277 -8Q314 157 334 247T354 345Q354 355 341 355Q321 355 275 320T168 219L122 0H53ZM286 465Q326 503 346 542T372 617Q370 616 368 616H361Q346 616 335 625T323 652Q323 669 334 680T365 692Q387 692 401 676T415 634Q415 585 382 538T295
460L286 465V465Z" />
<glyph unicode="&#x14a;" glyph-name="Eng" horiz-adv-x="661" d="M-13 0L-11 6L70 55L156 578Q141 601 127 620T101 657V662H202L456 231Q470 207 479 190T495 161T504 139T511 120L591 607L527 657L528 662H713L712 657L632 607L544 70Q539 40 528 4T497 -70T450
-146T387 -221L379 -215Q420 -148 441 -93T462 3Q462 17 460 31T453 62T437 101T411 152Q393 185 365 232T306 331T244 434T189 527L111 55L174 6L173 0H-13Z" />
<glyph unicode="&#x14b;" glyph-name="eng" horiz-adv-x="433" d="M29 0L100 348L46 374V381Q53 384 69 389T106 401T148 413T188 423L153 260Q180 294 208 323T264 373T316 407T365 420Q388 420 398 410T408 386Q408 375 402 345T386 267T361 158T330 22Q322
-12 306 -48T268 -120T221 -189T169 -250L161 -246Q168 -233 180 -208T207 -146T237 -58T267 56Q285 138 297 192T316 279T327 327T330 345Q330 355 317 355Q297 355 251 320T144 219L98 0H29Z" />
<glyph unicode="&#x14c;" glyph-name="Omacron" horiz-adv-x="665" d="M400 640Q348 640 303 609T223 526T170 406T150 262Q150 205 163 161T198 85T249 38T310 22Q361 22 406 52T485 135T540 259T560 411Q560 468 547 510T511 582T460 625T400 640ZM63 262Q63
344 90 418T164 549T272 638T400 672Q454 672 499 653T577 598T628 515T647 410Q647 322 620 246T546 112T438 23T310 -10Q259 -10 215 9T136 63T83 149T63 262ZM533 772L525 727H309L317 772H533Z" />
<glyph unicode="&#x14d;" glyph-name="omacron" horiz-adv-x="398" d="M163 -10Q132 -10 107 2T63 35T34 86T23 150Q23 203 41 251T89 337T158 397T239 420Q268 420 293 408T336 375T365 326T376 264Q376 203 357 153T307 66T238 10T163 -10ZM167 19Q190 19 213
38T256 90T287 170T299 270Q299 328 283 359T237 391Q212 391 188 369T144 312T113 233T101 142Q101 19 167 19ZM421 579H614L605 534H412L421 579Z" />
<glyph unicode="&#x14e;" glyph-name="Obreve" horiz-adv-x="665" d="M400 640Q348 640 303 609T223 526T170 406T150 262Q150 205 163 161T198 85T249 38T310 22Q361 22 406 52T485 135T540 259T560 411Q560 468 547 510T511 582T460 625T400 640ZM63 262Q63
344 90 418T164 549T272 638T400 672Q454 672 499 653T577 598T628 515T647 410Q647 322 620 246T546 112T438 23T310 -10Q259 -10 215 9T136 63T83 149T63 262ZM531 831Q518 778 489 746T414 713Q391 713 374 722T346 748T331 785T329 831L336 832Q341 803 360
785T415 767Q451 767 479 785T524 832L531 831Z" />
<glyph unicode="&#x14f;" glyph-name="obreve" horiz-adv-x="398" d="M163 -10Q132 -10 107 2T63 35T34 86T23 150Q23 203 41 251T89 337T158 397T239 420Q268 420 293 408T336 375T365 326T376 264Q376 203 357 153T307 66T238 10T163 -10ZM167 19Q190 19 213
38T256 90T287 170T299 270Q299 328 283 359T237 391Q212 391 188 369T144 312T113 233T101 142Q101 19 167 19ZM615 631Q604 578 577 544T505 509Q482 509 466 519T440 546T428 585T429 631L437 632Q439 605 455 584T506 562Q541 562 567 583T607 632L615 631Z"
/>
<glyph unicode="&#x150;" glyph-name="Ohungarumlaut" horiz-adv-x="665" d="M400 640Q348 640 303 609T223 526T170 406T150 262Q150 205 163 161T198 85T249 38T310 22Q361 22 406 52T485 135T540 259T560 411Q560 468 547 510T511 582T460 625T400 640ZM63
262Q63 344 90 418T164 549T272 638T400 672Q454 672 499 653T577 598T628 515T647 410Q647 322 620 246T546 112T438 23T310 -10Q259 -10 215 9T136 63T83 149T63 262ZM453 702L447 710L593 851L631 801L453 702ZM302 702L296 710L442 851L480 801L302 702Z" />
<glyph unicode="&#x151;" glyph-name="ohungarumlaut" horiz-adv-x="398" d="M163 -10Q132 -10 107 2T63 35T34 86T23 150Q23 203 41 251T89 337T158 397T239 420Q268 420 293 408T336 375T365 326T376 264Q376 203 357 153T307 66T238 10T163 -10ZM167 19Q190
19 213 38T256 90T287 170T299 270Q299 328 283 359T237 391Q212 391 188 369T144 312T113 233T101 142Q101 19 167 19ZM287 499L382 713L432 684L296 494L287 499ZM179 494L170 499L264 713L314 684L179 494Z" />
<glyph unicode="&#x152;" glyph-name="OE" horiz-adv-x="808" d="M335 0Q274 0 224 19T138 72T83 155T63 262Q63 341 92 413T172 540T292 629T443 662H815L796 545H789L744 630H573L530 369H705L758 438H765L737 269H730L700 337H524L474 33H660L744 138H751L728
0H335ZM394 32L493 630H443Q380 630 326 600T233 520T172 403T150 262Q150 153 200 93T335 32H394Z" />
<glyph unicode="&#x153;" glyph-name="oe" horiz-adv-x="585" d="M377 -10Q351 -10 325 7T286 62Q256 28 221 9T153 -10Q125 -10 101 1T60 34T33 83T23 146Q23 202 42 251T91 338T160 398T238 420Q280 420 309 395T352 326Q384 368 425 394T510 420Q545 420 565
409T585 379Q585 369 576 352T544 317T480 282T374 257Q363 228 357 194T351 123Q351 78 366 58T404 38Q433 38 466 62T532 125L541 119Q509 56 466 23T377 -10ZM158 19Q179 19 202 38T244 92T276 173T289 275Q289 335 275 363T235 391Q212 391 189 371T146 315T114
235T101 139Q101 79 116 49T158 19ZM494 393Q468 393 438 363T384 280Q409 285 433 293T476 314T508 340T520 373Q520 393 494 393Z" />
<glyph unicode="&#x154;" glyph-name="Racute" horiz-adv-x="529" d="M-2 6L70 50L163 612L107 656L108 662H312Q342 662 372 654T425 628T463 584T478 523Q478 490 467 462T437 412T394 372T342 343L400 177Q416 130 431 98T460 45T486 11T510 -11L509 -17Q461
-13 433 -2T386 30T355 82T326 155Q307 204 293 250T269 332H196L150 50L207 6L206 0H-3L-2 6ZM245 630L201 362H305Q319 362 335 374T365 406T388 454T397 513Q397 544 389 566T367 602T336 623T300 630H245ZM231 703L226 712L424 839L452 779L231 703Z" />
<glyph unicode="&#x155;" glyph-name="racute" horiz-adv-x="316" d="M29 0L100 348L44 374V381Q52 384 68 389T105 401T147 413T187 423L151 252Q194 330 226 375T275 420Q289 420 306 414T332 403L302 327Q295 330 283 336T259 342Q253 342 244 335T220 312T187
269T140 201L97 0H29ZM207 495L198 500L328 712L380 670L207 495Z" />
<glyph unicode="&#x156;" glyph-name="Rcommaaccent" horiz-adv-x="529" d="M-2 6L70 50L163 612L107 656L108 662H312Q342 662 372 654T425 628T463 584T478 523Q478 490 467 462T437 412T394 372T342 343L400 177Q416 130 431 98T460 45T486 11T510 -11L509
-17Q461 -13 433 -2T386 30T355 82T326 155Q307 204 293 250T269 332H196L150 50L207 6L206 0H-3L-2 6ZM245 630L201 362H305Q319 362 335 374T365 406T388 454T397 513Q397 544 389 566T367 602T336 623T300 630H245ZM295 -126Q295 -150 285 -173T259 -218T222
-258T180 -290L172 -285Q184 -270 196 -253T220 -219T240 -184T255 -153Q240 -155 226 -146T212 -119Q212 -101 223 -90T251 -78Q271 -78 283 -91T295 -126Z" />
<glyph unicode="&#x157;" glyph-name="rcommaaccent" horiz-adv-x="316" d="M29 0L100 348L44 374V381Q52 384 68 389T105 401T147 413T187 423L151 252Q194 330 226 375T275 420Q289 420 306 414T332 403L302 327Q295 330 283 336T259 342Q253 342 244 335T220
312T187 269T140 201L97 0H29ZM337 -126Q337 -150 327 -173T301 -218T264 -258T222 -290L214 -285Q226 -270 238 -253T262 -219T282 -184T297 -153Q282 -155 268 -146T254 -119Q254 -101 265 -90T293 -78Q313 -78 325 -91T337 -126Z" />
<glyph unicode="&#x158;" glyph-name="Rcaron" horiz-adv-x="529" d="M-2 6L70 50L163 612L107 656L108 662H312Q342 662 372 654T425 628T463 584T478 523Q478 490 467 462T437 412T394 372T342 343L400 177Q416 130 431 98T460 45T486 11T510 -11L509 -17Q461
-13 433 -2T386 30T355 82T326 155Q307 204 293 250T269 332H196L150 50L207 6L206 0H-3L-2 6ZM245 630L201 362H305Q319 362 335 374T365 406T388 454T397 513Q397 544 389 566T367 602T336 623T300 630H245ZM313 702L215 820L220 826L319 771L449 826L454 819L313
702Z" />
<glyph unicode="&#x159;" glyph-name="rcaron" horiz-adv-x="316" d="M29 0L100 348L44 374V381Q52 384 68 389T105 401T147 413T187 423L151 252Q194 330 226 375T275 420Q289 420 306 414T332 403L302 327Q295 330 283 336T259 342Q253 342 244 335T220 312T187
269T140 201L97 0H29ZM481 484L429 702L438 705L499 592L612 705L621 700L481 484Z" />
<glyph unicode="&#x15a;" glyph-name="Sacute" horiz-adv-x="420" d="M281 672Q326 672 363 663T414 647L395 547H389Q375 591 349 616T280 642Q240 642 216 618T191 556Q191 517 213 477T274 378Q317 311 344 260T372 154Q372 117 358 87T318 35T261 2T191 -10Q131
-10 91 5T26 38Q26 51 28 72T33 117T39 161T46 198H53Q60 110 97 68T191 25Q216 25 236 34T269 57T290 91T297 131Q297 154 292 175T275 218T249 266T212 323Q189 358 172 385T144 437T126 483T120 531Q120 566 133 592T169 636T221 663T281 672ZM201 703L196 712L394
839L422 779L201 703Z" />
<glyph unicode="&#x15b;" glyph-name="sacute" horiz-adv-x="278" d="M174 421Q201 421 225 415T261 405L244 335H239Q224 366 207 379T170 393Q155 393 142 382T128 350Q128 342 131 328T147 291Q156 274 163 261T177 234T192 206T209 175Q222 150 226 130T231
93Q231 75 223 57T200 24T162 0T112 -10Q98 -10 83 -7T53 0T27 9T8 18Q10 41 14 73T24 133H30Q40 74 63 48T114 22Q143 22 155 38T168 72Q168 82 165 96T146 141Q129 174 116 199T86 253Q75 274 71 292T67 324Q67 343 74 360T95 391T129 413T174 421ZM416 495L407
500L537 712L589 670L416 495Z" />
<glyph unicode="&#x15c;" glyph-name="Scircumflex" horiz-adv-x="420" d="M281 672Q326 672 363 663T414 647L395 547H389Q375 591 349 616T280 642Q240 642 216 618T191 556Q191 517 213 477T274 378Q317 311 344 260T372 154Q372 117 358 87T318 35T261 2T191
-10Q131 -10 91 5T26 38Q26 51 28 72T33 117T39 161T46 198H53Q60 110 97 68T191 25Q216 25 236 34T269 57T290 91T297 131Q297 154 292 175T275 218T249 266T212 323Q189 358 172 385T144 437T126 483T120 531Q120 566 133 592T169 636T221 663T281 672ZM313 831L411
713L406 707L307 762L177 707L172 714L313 831Z" />
<glyph unicode="&#x15d;" glyph-name="scircumflex" horiz-adv-x="278" d="M174 421Q201 421 225 415T261 405L244 335H239Q224 366 207 379T170 393Q155 393 142 382T128 350Q128 342 131 328T147 291Q156 274 163 261T177 234T192 206T209 175Q222 150 226 130T231
93Q231 75 223 57T200 24T162 0T112 -10Q98 -10 83 -7T53 0T27 9T8 18Q10 41 14 73T24 133H30Q40 74 63 48T114 22Q143 22 155 38T168 72Q168 82 165 96T146 141Q129 174 116 199T86 253Q75 274 71 292T67 324Q67 343 74 360T95 391T129 413T174 421ZM483 706L535
488L526 485L465 598L352 485L343 490L483 706Z" />
<glyph unicode="&#x15e;" glyph-name="Scedilla" horiz-adv-x="420" d="M281 672Q326 672 363 663T414 647L395 547H389Q375 591 349 616T280 642Q240 642 216 618T191 556Q191 517 213 477T274 378Q317 311 344 260T372 154Q372 117 358 87T318 35T261 2T191
-10Q131 -10 91 5T26 38Q26 51 28 72T33 117T39 161T46 198H53Q60 110 97 68T191 25Q216 25 236 34T269 57T290 91T297 131Q297 154 292 175T275 218T249 266T212 323Q189 358 172 385T144 437T126 483T120 531Q120 566 133 592T169 636T221 663T281 672ZM198 0L146
-80Q166 -88 183 -105T200 -149Q200 -191 156 -224T41 -281L37 -274Q53 -265 72 -252T107 -224T135 -193T147 -161Q147 -141 131 -131T101 -115L100 -112Q120 -82 136 -57Q150 -36 161 -19T172 0H198Z" />
<glyph unicode="&#x15f;" glyph-name="scedilla" horiz-adv-x="278" d="M174 421Q201 421 225 415T261 405L244 335H239Q224 366 207 379T170 393Q155 393 142 382T128 350Q128 342 131 328T147 291Q156 274 163 261T177 234T192 206T209 175Q222 150 226 130T231
93Q231 75 223 57T200 24T162 0T112 -10Q98 -10 83 -7T53 0T27 9T8 18Q10 41 14 73T24 133H30Q40 74 63 48T114 22Q143 22 155 38T168 72Q168 82 165 96T146 141Q129 174 116 199T86 253Q75 274 71 292T67 324Q67 343 74 360T95 391T129 413T174 421ZM393 0L341
-80Q361 -88 378 -105T395 -149Q395 -191 351 -224T236 -281L232 -274Q248 -265 267 -252T302 -224T330 -193T342 -161Q342 -141 326 -131T296 -115L295 -112Q315 -82 331 -57Q345 -36 356 -19T367 0H393Z" />
<glyph unicode="&#x160;" glyph-name="Scaron" horiz-adv-x="420" d="M281 672Q326 672 363 663T414 647L395 547H389Q375 591 349 616T280 642Q240 642 216 618T191 556Q191 517 213 477T274 378Q317 311 344 260T372 154Q372 117 358 87T318 35T261 2T191 -10Q131
-10 91 5T26 38Q26 51 28 72T33 117T39 161T46 198H53Q60 110 97 68T191 25Q216 25 236 34T269 57T290 91T297 131Q297 154 292 175T275 218T249 266T212 323Q189 358 172 385T144 437T126 483T120 531Q120 566 133 592T169 636T221 663T281 672ZM287 703L189 821L194
827L293 772L423 827L428 820L287 703Z" />
<glyph unicode="&#x161;" glyph-name="scaron" horiz-adv-x="278" d="M174 421Q201 421 225 415T261 405L244 335H239Q224 366 207 379T170 393Q155 393 142 382T128 350Q128 342 131 328T147 291Q156 274 163 261T177 234T192 206T209 175Q222 150 226 130T231
93Q231 75 223 57T200 24T162 0T112 -10Q98 -10 83 -7T53 0T27 9T8 18Q10 41 14 73T24 133H30Q40 74 63 48T114 22Q143 22 155 38T168 72Q168 82 165 96T146 141Q129 174 116 199T86 253Q75 274 71 292T67 324Q67 343 74 360T95 391T129 413T174 421ZM437 484L385
702L394 705L455 592L568 705L577 700L437 484Z" />
<glyph unicode="&#x162;" glyph-name="Tcommaaccent" horiz-adv-x="572" d="M612 662L590 534H584L538 629H397L301 50L357 6L356 0H148L149 6L221 50L317 629H177L97 534H91L114 662H612ZM276 -126Q276 -150 266 -173T240 -218T203 -258T161 -290L153 -285Q165
-270 177 -253T201 -219T221 -184T236 -153Q221 -155 207 -146T193 -119Q193 -101 204 -90T232 -78Q252 -78 264 -91T276 -126Z" />
<glyph unicode="&#x163;" glyph-name="tcommaaccent" horiz-adv-x="293" d="M174 370L119 117Q113 91 110 76T106 53Q106 47 109 42T121 37Q134 37 148 44T177 63T203 87T227 110L235 106Q229 92 216 73T185 35T143 3T92 -10Q63 -10 47 2T31 33Q31 40 34 54T41
91L103 370H53V375L194 471L181 407H322L293 370H174ZM370 -126Q370 -150 360 -173T334 -218T297 -258T255 -290L247 -285Q259 -270 271 -253T295 -219T315 -184T330 -153Q315 -155 301 -146T287 -119Q287 -101 298 -90T326 -78Q346 -78 358 -91T370 -126Z" />
<glyph unicode="&#x164;" glyph-name="Tcaron" horiz-adv-x="572" d="M612 662L590 534H584L538 629H397L301 50L357 6L356 0H148L149 6L221 50L317 629H177L97 534H91L114 662H612ZM367 702L269 820L274 826L373 771L503 826L508 819L367 702Z" />
<glyph unicode="&#x165;" glyph-name="tcaron" horiz-adv-x="293" d="M174 370L119 117Q113 91 110 76T106 53Q106 47 109 42T121 37Q134 37 148 44T177 63T203 87T227 110L235 106Q229 92 216 73T185 35T143 3T92 -10Q63 -10 47 2T31 33Q31 40 34 54T41 91L103
370H53V375L194 471L181 407H322L293 370H174ZM250 509L311 715H377L261 509H250Z" />
<glyph unicode="&#x166;" glyph-name="Tbar" horiz-adv-x="572" d="M124 336L129 368H497L492 336H124ZM612 662L590 534H584L538 629H397L301 50L357 6L356 0H148L149 6L221 50L317 629H177L97 534H91L114 662H612Z" />
<glyph unicode="&#x167;" glyph-name="tbar" horiz-adv-x="293" d="M13 229L20 258H276L269 229H13ZM174 370L119 117Q113 91 110 76T106 53Q106 47 109 42T121 37Q134 37 148 44T177 63T203 87T227 110L235 106Q229 92 216 73T185 35T143 3T92 -10Q63 -10 47
2T31 33Q31 40 34 54T41 91L103 370H53V375L194 471L181 407H322L293 370H174Z" />
<glyph unicode="&#x168;" glyph-name="Utilde" horiz-adv-x="637" d="M549 199Q542 158 524 121T477 54T407 8T314 -10Q254 -10 209 6T134 51T93 122T89 214L155 612L99 656L100 662H307L306 656L235 612L168 211Q161 170 171 138T202 84T256 51T327 39Q367 39
398 51T451 85T488 136T508 199L577 612L521 656L522 662H689L688 656L617 612L549 199ZM380 806Q388 806 403 803T436 795T470 787T495 783Q502 783 511 788T529 800T547 816T561 832L568 829Q562 814 553 797T534 766T511 741T488 731Q477 731 461 734T427 742T395
750T373 754Q366 754 357 749T339 735T320 718T305 702L298 705Q304 719 313 736T333 769T357 795T380 806Z" />
<glyph unicode="&#x169;" glyph-name="utilde" horiz-adv-x="432" d="M283 176Q259 140 233 107T180 49T127 9T79 -6Q56 -6 45 4T33 26Q33 40 40 67Q48 102 65 172T105 348L50 374V381Q58 384 74 389T111 401T153 413T193 423Q156 258 134 167T112 67Q112 63 114
61T124 58Q135 58 155 73T200 114T249 169T295 228L334 410H404L330 51L387 25V19Q378 17 360 13T322 6T280 -2T244 -8L283 176ZM243 611Q251 611 264 607T291 596T319 586T340 581Q346 581 354 586T372 599T390 617T406 637L413 633Q407 615 398 597T378 565T355
541T333 531Q323 531 310 535T282 545T255 555T236 560Q222 560 204 543T168 505L161 509Q168 526 178 544T199 577T222 601T243 611Z" />
<glyph unicode="&#x16a;" glyph-name="Umacron" horiz-adv-x="637" d="M549 199Q542 158 524 121T477 54T407 8T314 -10Q254 -10 209 6T134 51T93 122T89 214L155 612L99 656L100 662H307L306 656L235 612L168 211Q161 170 171 138T202 84T256 51T327 39Q367 39
398 51T451 85T488 136T508 199L577 612L521 656L522 662H689L688 656L617 612L549 199ZM530 772L522 727H306L314 772H530Z" />
<glyph unicode="&#x16b;" glyph-name="umacron" horiz-adv-x="432" d="M283 176Q259 140 233 107T180 49T127 9T79 -6Q56 -6 45 4T33 26Q33 40 40 67Q48 102 65 172T105 348L50 374V381Q58 384 74 389T111 401T153 413T193 423Q156 258 134 167T112 67Q112 63
114 61T124 58Q135 58 155 73T200 114T249 169T295 228L334 410H404L330 51L387 25V19Q378 17 360 13T322 6T280 -2T244 -8L283 176ZM188 579H381L372 534H179L188 579Z" />
<glyph unicode="&#x16c;" glyph-name="Ubreve" horiz-adv-x="637" d="M549 199Q542 158 524 121T477 54T407 8T314 -10Q254 -10 209 6T134 51T93 122T89 214L155 612L99 656L100 662H307L306 656L235 612L168 211Q161 170 171 138T202 84T256 51T327 39Q367 39
398 51T451 85T488 136T508 199L577 612L521 656L522 662H689L688 656L617 612L549 199ZM530 831Q517 778 488 746T413 713Q390 713 373 722T345 748T330 785T328 831L335 832Q340 803 359 785T414 767Q450 767 478 785T523 832L530 831Z" />
<glyph unicode="&#x16d;" glyph-name="ubreve" horiz-adv-x="432" d="M283 176Q259 140 233 107T180 49T127 9T79 -6Q56 -6 45 4T33 26Q33 40 40 67Q48 102 65 172T105 348L50 374V381Q58 384 74 389T111 401T153 413T193 423Q156 258 134 167T112 67Q112 63 114
61T124 58Q135 58 155 73T200 114T249 169T295 228L334 410H404L330 51L387 25V19Q378 17 360 13T322 6T280 -2T244 -8L283 176ZM377 631Q366 578 339 544T267 509Q244 509 228 519T202 546T190 585T191 631L199 632Q201 605 217 584T268 562Q303 562 329 583T369
632L377 631Z" />
<glyph unicode="&#x16e;" glyph-name="Uring" horiz-adv-x="637" d="M549 199Q542 158 524 121T477 54T407 8T314 -10Q254 -10 209 6T134 51T93 122T89 214L155 612L99 656L100 662H307L306 656L235 612L168 211Q161 170 171 138T202 84T256 51T327 39Q367 39
398 51T451 85T488 136T508 199L577 612L521 656L522 662H689L688 656L617 612L549 199ZM372 767Q372 747 385 732T420 716Q441 716 454 731T468 767Q468 787 455 802T420 818Q398 818 385 803T372 767ZM342 767Q342 783 348 797T365 821T390 838T420 844Q452 844
475 822T498 767Q498 733 475 712T420 690Q388 690 365 711T342 767Z" />
<glyph unicode="&#x16f;" glyph-name="uring" horiz-adv-x="432" d="M283 176Q259 140 233 107T180 49T127 9T79 -6Q56 -6 45 4T33 26Q33 40 40 67Q48 102 65 172T105 348L50 374V381Q58 384 74 389T111 401T153 413T193 423Q156 258 134 167T112 67Q112 63 114
61T124 58Q135 58 155 73T200 114T249 169T295 228L334 410H404L330 51L387 25V19Q378 17 360 13T322 6T280 -2T244 -8L283 176ZM230 575Q230 555 243 540T278 524Q299 524 312 539T326 575Q326 595 313 610T278 626Q256 626 243 611T230 575ZM200 575Q200 591
206 605T223 629T248 646T278 652Q310 652 333 630T356 575Q356 541 333 520T278 498Q246 498 223 519T200 575Z" />
<glyph unicode="&#x170;" glyph-name="Uhungarumlaut" horiz-adv-x="637" d="M549 199Q542 158 524 121T477 54T407 8T314 -10Q254 -10 209 6T134 51T93 122T89 214L155 612L99 656L100 662H307L306 656L235 612L168 211Q161 170 171 138T202 84T256 51T327 39Q367
39 398 51T451 85T488 136T508 199L577 612L521 656L522 662H689L688 656L617 612L549 199ZM440 702L434 710L580 851L618 801L440 702ZM289 702L283 710L429 851L467 801L289 702Z" />
<glyph unicode="&#x171;" glyph-name="uhungarumlaut" horiz-adv-x="432" d="M283 176Q259 140 233 107T180 49T127 9T79 -6Q56 -6 45 4T33 26Q33 40 40 67Q48 102 65 172T105 348L50 374V381Q58 384 74 389T111 401T153 413T193 423Q156 258 134 167T112 67Q112
63 114 61T124 58Q135 58 155 73T200 114T249 169T295 228L334 410H404L330 51L387 25V19Q378 17 360 13T322 6T280 -2T244 -8L283 176ZM316 499L411 713L461 684L325 494L316 499ZM208 494L199 499L293 713L343 684L208 494Z" />
<glyph unicode="&#x172;" glyph-name="Uogonek" horiz-adv-x="637" d="M233 -203Q233 -176 246 -150T280 -98T329 -48T385 0Q369 -5 352 -7T314 -10Q254 -10 209 6T134 51T93 122T89 214L155 612L99 656L100 662H307L306 656L235 612L168 211Q161 170 171 138T202
84T256 51T327 39Q367 39 398 51T451 85T488 136T508 199L577 612L521 656L522 662H689L688 656L617 612L549 199Q543 160 530 131T499 80T462 39T420 1Q396 -20 374 -44T336 -92T309 -141T299 -188Q299 -210 310 -223T343 -237Q364 -237 384 -226T418 -204L423
-208Q418 -217 409 -228T385 -251T352 -269T310 -277Q276 -277 255 -256T233 -203Z" />
<glyph unicode="&#x173;" glyph-name="uogonek" horiz-adv-x="432" d="M171 -277Q137 -277 116 -256T94 -203Q94 -175 108 -147T145 -93T195 -43T246 0L284 176Q260 140 233 107T180 49T127 9T79 -6Q56 -6 45 4T33 26Q33 40 40 67Q48 102 65 172T105 348L50 374V381Q58
384 74 389T111 401T153 413T193 423Q156 258 134 167T112 67Q112 63 114 61T124 58Q135 58 155 74T200 114T249 169T295 228L334 410H404L330 51L387 25V19Q379 17 365 14T335 8T300 1T266 -5Q223 -50 192 -98T160 -188Q160 -210 171 -223T204 -237Q225 -237 245
-226T279 -204L284 -208Q279 -217 270 -228T246 -251T213 -269T171 -277Z" />
<glyph unicode="&#x174;" glyph-name="Wcircumflex" horiz-adv-x="839" d="M130 612L86 656L87 662H281L280 656L208 612L279 122L435 385L393 612L340 656L341 662H530L529 656L467 612L495 450L587 612L545 656L546 662H689L688 656L626 612L504 402L553 125L802
612L747 656L748 662H907L906 656L842 612L521 -13H510L445 334L238 -13H227L130 612ZM548 831L646 713L641 707L542 762L412 707L407 714L548 831Z" />
<glyph unicode="&#x175;" glyph-name="wcircumflex" horiz-adv-x="508" d="M313 417Q318 388 320 348T323 265T322 180T316 103Q359 166 384 209T421 282T437 329T440 359Q440 379 425 397V400L498 420Q502 415 506 405T510 381Q510 361 500 333T462 259T383 146T252
-19H241Q245 12 248 50T253 127T258 204T261 275Q223 208 175 136T58 -19H47Q55 40 62 98T74 206T81 295T84 355L34 381L35 388Q44 391 59 395T91 405T125 415T154 423Q155 398 153 359T147 277T138 191T128 116Q164 170 210 248T302 417H313V417ZM357 706L409
488L400 485L339 598L226 485L217 490L357 706Z" />
<glyph unicode="&#x176;" glyph-name="Ycircumflex" horiz-adv-x="548" d="M450 656L451 662H612L611 656L548 612L338 320L294 50L351 6L350 0H141L142 6L214 50L257 315L130 612L84 656L85 662H287L286 656L213 612L321 353L505 612L450 656ZM388 831L486 713L481
707L382 762L252 707L247 714L388 831Z" />
<glyph unicode="&#x177;" glyph-name="ycircumflex" horiz-adv-x="344" d="M274 349Q274 375 250 396V399L330 421Q335 414 340 402T345 375Q345 350 333 320T297 249T236 154T150 28L-56 -271L-136 -260V-254Q-108 -230 -75 -196T-10 -127T50 -58T96 -2Q94 49
92 101T85 202T77 290T70 355L20 382V388Q29 391 41 395T69 404T100 414T130 423Q135 392 139 350T147 261T153 168T155 85Q188 140 211 181T248 254T268 308T274 349ZM510 706L562 488L553 485L492 598L379 485L370 490L510 706Z" />
<glyph unicode="&#x178;" glyph-name="Ydieresis" horiz-adv-x="548" d="M450 656L451 662H612L611 656L548 612L338 320L294 50L351 6L350 0H141L142 6L214 50L257 315L130 612L84 656L85 662H287L286 656L213 612L321 353L505 612L450 656ZM458 807Q475 807
486 796T498 767Q498 750 487 738T458 726Q441 726 430 738T418 767Q418 784 429 795T458 807ZM297 807Q314 807 325 796T337 767Q337 750 326 738T297 726Q280 726 269 738T257 767Q257 784 268 795T297 807Z" />
<glyph unicode="&#x179;" glyph-name="Zacute" horiz-adv-x="558" d="M104 34H415L504 142H509L484 0H-1L0 9L467 630H194L115 534H109L130 662H579L578 654L104 34ZM265 703L260 712L458 839L486 779L265 703Z" />
<glyph unicode="&#x17a;" glyph-name="zacute" horiz-adv-x="352" d="M-15 6L274 357H204Q141 357 106 353T57 347L54 351L110 416L363 408L362 403L72 57H128Q165 57 190 58T236 62T273 68T308 76L311 72L253 -4L-16 0L-15 6ZM214 495L205 500L335 712L387 670L214 495Z" />
<glyph unicode="&#x17b;" glyph-name="Zdotaccent" horiz-adv-x="558" d="M104 34H415L504 142H509L484 0H-1L0 9L467 630H194L115 534H109L130 662H579L578 654L104 34ZM362 808Q379 808 391 796T403 767Q403 750 391 738T362 726Q345 726 333 738T321 767Q321
784 333 796T362 808Z" />
<glyph unicode="&#x17c;" glyph-name="zdotaccent" horiz-adv-x="352" d="M-15 6L274 357H204Q141 357 106 353T57 347L54 351L110 416L363 408L362 403L72 57H128Q165 57 190 58T236 62T273 68T308 76L311 72L253 -4L-16 0L-15 6ZM497 629Q514 629 526 617T538
588Q538 571 526 559T497 547Q480 547 468 559T456 588Q456 605 468 617T497 629Z" />
<glyph unicode="&#x17d;" glyph-name="Zcaron" horiz-adv-x="558" d="M104 34H415L504 142H509L484 0H-1L0 9L467 630H194L115 534H109L130 662H579L578 654L104 34ZM354 702L256 820L261 826L360 771L490 826L495 819L354 702Z" />
<glyph unicode="&#x17e;" glyph-name="zcaron" horiz-adv-x="352" d="M-15 6L274 357H204Q141 357 106 353T57 347L54 351L110 416L363 408L362 403L72 57H128Q165 57 190 58T236 62T273 68T308 76L311 72L253 -4L-16 0L-15 6ZM480 484L428 702L437 705L498 592L611
705L620 700L480 484Z" />
<glyph unicode="&#x192;" glyph-name="florin" horiz-adv-x="372" d="M262 521Q252 486 243 453T224 384H330L302 347H214L145 94Q131 45 112 -4T65 -92T-1 -157T-91 -186L-99 -127Q-92 -129 -81 -130T-61 -132Q-39 -132 -22 -124T10 -92T41 -22T77 99Q94 165
109 225T141 347H69L70 352L94 384H151L177 480Q188 521 206 556T248 617T305 657T379 672Q405 672 424 668T457 658L424 599Q413 609 394 622T352 635Q321 635 299 605T262 521Z" />
<glyph unicode="&#x1fa;" glyph-name="Aringacute" horiz-adv-x="567" d="M128 6L126 0H-36L-34 6L31 50L366 675H375L483 50L527 6L525 0H330L332 6L408 50L367 281H194L72 50L128 6ZM211 312H362L324 526L211 312ZM331 777Q331 757 344 742T379 726Q400 726
413 741T427 777Q427 797 414 812T379 828Q357 828 344 813T331 777ZM301 777Q301 793 307 807T324 831T349 848T379 854Q411 854 434 832T457 777Q457 743 434 722T379 700Q347 700 324 721T301 777ZM309 864L304 873L502 1000L530 940L309 864Z" />
<glyph unicode="&#x1fb;" glyph-name="aringacute" horiz-adv-x="408" d="M364 26L363 19Q354 16 337 13T299 5T257 -2T220 -8L251 141Q233 114 212 88T168 39T122 4T76 -10Q54 -10 35 15T15 88Q15 134 33 186T89 283T180 362T305 405L386 451L305 53L364 26ZM262
195L300 375Q260 372 222 347T155 282T108 192T90 89Q90 69 95 57T109 44Q121 44 142 60T187 101T235 157Q249 176 262 194V195ZM455 823Q455 803 468 788T503 772Q524 772 537 787T551 823Q551 843 538 858T503 874Q481 874 468 859T455 823ZM425 823Q425 839
431 853T448 877T473 894T503 900Q535 900 558 878T581 823Q581 789 558 768T503 746Q471 746 448 767T425 823ZM216 667L207 672L337 884L389 842L216 667Z" />
<glyph unicode="&#x1fc;" glyph-name="AEacute" horiz-adv-x="772" d="M361 50L405 317H251L70 50L127 6L126 0H-37L-36 6L28 50L410 612L355 656L356 662H779L760 545H753L708 630H537L494 369H669L722 438H729L701 269H694L664 337H488L438 33H624L708 138H715L692
0H288L289 6L361 50ZM410 349L454 616L273 349H410ZM507 703L502 712L700 839L728 779L507 703Z" />
<glyph unicode="&#x1fd;" glyph-name="aeacute" horiz-adv-x="547" d="M339 -10Q322 -10 304 -4T272 18T248 56T238 113V123Q221 99 202 75T163 32T121 2T78 -10Q55 -10 36 15T16 88Q16 145 39 203T101 309T193 385T305 415Q331 415 352 409T387 394Q407 406 428
413T472 420Q507 420 527 409T547 379Q547 369 538 352T506 317T442 282T336 257Q325 228 319 194T313 123Q313 78 328 58T366 38Q395 38 428 62T494 125L503 119Q471 56 428 23T339 -10ZM288 386Q256 386 222 362T158 297T110 202T91 88Q91 70 96 57T111 44Q121
44 136 53T169 79T205 118T242 165Q252 224 280 275T346 363Q336 372 322 379T288 386ZM482 373Q482 393 456 393Q430 393 400 363T346 280Q371 285 395 293T438 314T470 340T482 373ZM331 495L322 500L452 712L504 670L331 495Z" />
<glyph unicode="&#x1fe;" glyph-name="Oslashacute" horiz-adv-x="665" d="M63 262Q63 344 90 418T164 549T272 638T400 672Q442 672 479 660T546 625L607 710L633 692L571 605Q607 570 627 520T647 410Q647 322 620 246T546 112T438 23T310 -10Q228 -10 167 36L97
-62L71 -44L142 57Q105 92 84 144T63 262ZM400 640Q348 640 303 609T223 526T170 406T150 262Q150 216 158 179T182 112L513 578Q491 609 462 624T400 640ZM560 411Q559 494 531 549L200 83Q222 53 250 38T310 22Q361 22 406 52T485 135T540 259T560 411ZM313 703L308
712L506 839L534 779L313 703Z" />
<glyph unicode="&#x1ff;" glyph-name="oslashacute" horiz-adv-x="398" d="M15 -50L67 30Q46 52 35 82T23 150Q23 203 41 251T89 337T158 397T239 420Q259 420 276 415T309 399L355 469L379 454L331 380Q351 359 363 329T376 264Q376 203 357 153T307 66T238 10T163
-10Q122 -10 89 12L39 -65L15 -50ZM167 19Q190 19 213 38T256 90T287 170T299 270Q299 299 294 324L116 53Q132 19 167 19ZM101 142Q101 108 105 88L283 359Q266 391 237 391Q212 391 188 369T144 312T113 233T101 142ZM204 495L195 500L325 712L377 670L204 495Z"
/>
<glyph unicode="&#x218;" glyph-name="Scommaaccent" horiz-adv-x="420" d="M281 672Q326 672 363 663T414 647L395 547H389Q375 591 349 616T280 642Q240 642 216 618T191 556Q191 517 213 477T274 378Q317 311 344 260T372 154Q372 117 358 87T318 35T261 2T191
-10Q131 -10 91 5T26 38Q26 51 28 72T33 117T39 161T46 198H53Q60 110 97 68T191 25Q216 25 236 34T269 57T290 91T297 131Q297 154 292 175T275 218T249 266T212 323Q189 358 172 385T144 437T126 483T120 531Q120 566 133 592T169 636T221 663T281 672ZM198 -126Q198
-150 188 -173T162 -218T125 -258T83 -290L75 -285Q87 -270 99 -253T123 -219T143 -184T158 -153Q143 -155 129 -146T115 -119Q115 -101 126 -90T154 -78Q174 -78 186 -91T198 -126Z" />
<glyph unicode="&#x219;" glyph-name="scommaaccent" horiz-adv-x="278" d="M174 421Q201 421 225 415T261 405L244 335H239Q224 366 207 379T170 393Q155 393 142 382T128 350Q128 342 131 328T147 291Q156 274 163 261T177 234T192 206T209 175Q222 150 226
130T231 93Q231 75 223 57T200 24T162 0T112 -10Q98 -10 83 -7T53 0T27 9T8 18Q10 41 14 73T24 133H30Q40 74 63 48T114 22Q143 22 155 38T168 72Q168 82 165 96T146 141Q129 174 116 199T86 253Q75 274 71 292T67 324Q67 343 74 360T95 391T129 413T174 421ZM389
-126Q389 -150 379 -173T353 -218T316 -258T274 -290L266 -285Q278 -270 290 -253T314 -219T334 -184T349 -153Q334 -155 320 -146T306 -119Q306 -101 317 -90T345 -78Q365 -78 377 -91T389 -126Z" />
<glyph unicode="&#x21a;" glyph-name="uni021A" horiz-adv-x="572" d="M612 662L590 534H584L538 629H397L301 50L357 6L356 0H148L149 6L221 50L317 629H177L97 534H91L114 662H612ZM276 -126Q276 -150 266 -173T240 -218T203 -258T161 -290L153 -285Q165 -270
177 -253T201 -219T221 -184T236 -153Q221 -155 207 -146T193 -119Q193 -101 204 -90T232 -78Q252 -78 264 -91T276 -126Z" />
<glyph unicode="&#x21b;" glyph-name="uni021B" horiz-adv-x="293" d="M174 370L119 117Q113 91 110 76T106 53Q106 47 109 42T121 37Q134 37 148 44T177 63T203 87T227 110L235 106Q229 92 216 73T185 35T143 3T92 -10Q63 -10 47 2T31 33Q31 40 34 54T41 91L103
370H53V375L194 471L181 407H322L293 370H174ZM370 -126Q370 -150 360 -173T334 -218T297 -258T255 -290L247 -285Q259 -270 271 -253T295 -219T315 -184T330 -153Q315 -155 301 -146T287 -119Q287 -101 298 -90T326 -78Q346 -78 358 -91T370 -126Z" />
<glyph unicode="&#x237;" glyph-name="uni0237" horiz-adv-x="208" d="M107 22Q101 -12 85 -48T46 -120T-2 -189T-55 -250L-63 -246Q-56 -233 -43 -208T-15 -145T15 -57T43 57L99 348L43 374V381Q51 384 66 389T101 401T142 413T182 423L107 22Z" />
<glyph unicode="&#x2c6;" glyph-name="circumflex" horiz-adv-x="400" d="M297 706L349 488L340 485L279 598L166 485L157 490L297 706Z" />
<glyph unicode="&#x2c7;" glyph-name="caron" horiz-adv-x="400" d="M232 484L180 702L189 705L250 592L363 705L372 700L232 484Z" />
<glyph unicode="&#x2d8;" glyph-name="breve" horiz-adv-x="400" d="M366 631Q355 578 328 544T256 509Q233 509 217 519T191 546T179 585T180 631L188 632Q190 605 206 584T257 562Q292 562 318 583T358 632L366 631Z" />
<glyph unicode="&#x2d9;" glyph-name="dotaccent" horiz-adv-x="400" d="M267 629Q284 629 296 617T308 588Q308 571 296 559T267 547Q250 547 238 559T226 588Q226 605 238 617T267 629Z" />
<glyph unicode="&#x2da;" glyph-name="ring" horiz-adv-x="400" d="M223 575Q223 555 236 540T271 524Q292 524 305 539T319 575Q319 595 306 610T271 626Q249 626 236 611T223 575ZM193 575Q193 591 199 605T216 629T241 646T271 652Q303 652 326 630T349 575Q349
541 326 520T271 498Q239 498 216 519T193 575Z" />
<glyph unicode="&#x2db;" glyph-name="ogonek" horiz-adv-x="400" d="M110 -277Q76 -277 55 -256T33 -203Q33 -175 47 -147T84 -93T134 -43T185 0H209Q187 -23 167 -47T132 -96T108 -143T99 -188Q99 -210 110 -223T143 -237Q164 -237 184 -226T218 -204L223 -208Q218
-217 209 -228T185 -251T152 -269T110 -277Z" />
<glyph unicode="&#x2dc;" glyph-name="tilde" horiz-adv-x="400" d="M220 611Q228 611 241 607T268 596T296 586T317 581Q323 581 331 586T349 599T367 617T383 637L390 633Q384 615 375 597T355 565T332 541T310 531Q300 531 287 535T259 545T232 555T213 560Q199
560 181 543T145 505L138 509Q145 526 155 544T176 577T199 601T220 611Z" />
<glyph unicode="&#x2dd;" glyph-name="hungarumlaut" horiz-adv-x="400" d="M253 499L348 713L398 684L262 494L253 499ZM145 494L136 499L230 713L280 684L145 494Z" />
</font>
</defs>
</svg>
